<?xml version="1.0" encoding="UTF-8" standalone="no"?>
	<!-- Created with Inkscape (http://www.inkscape.org/) -->

	<svg xmlns:dc="http://purl.org/dc/elements/1.1/" xmlns:cc="http://creativecommons.org/ns#" xmlns:rdf="http://www.w3.org/1999/02/22-rdf-syntax-ns#" xmlns:svg="http://www.w3.org/2000/svg" xmlns="http://www.w3.org/2000/svg" id="svg4136" version="1.1" xml:space="preserve" width="407.5" height="546.25" viewBox="0 0 407.5 546.25">
		<defs id="defs4140">
			<clipPath clipPathUnits="userSpaceOnUse" id="clipPath4150">
				<path d="M 0,437 326,437 326,0 0,0 0,437 Z" id="path4152" />
			</clipPath>
			<clipPath clipPathUnits="userSpaceOnUse" id="clipPath4310">
				<path d="M 0,437 326,437 326,0 0,0 0,437 Z" id="path4312" />
			</clipPath>
			<clipPath clipPathUnits="userSpaceOnUse" id="clipPath4334">
				<path d="M 0,437 326,437 326,0 0,0 0,437 Z" id="path4336" />
			</clipPath>
			<clipPath clipPathUnits="userSpaceOnUse" id="clipPath4366">
				<path d="M 0,437 326,437 326,0 0,0 0,437 Z" id="path4368" />
			</clipPath>
		</defs>
		<g id="g4144" transform="matrix(1.25,0,0,-1.25,0,546.25)">
			<g id="g4146">
				<g id="g4148" clip-path="url(#clipPath4150)">
					<g id="g4154" transform="translate(270.9338,329.056)">
						<path d="M 0,0 C 27.024,0 48.931,21.907 48.931,48.931 48.931,75.955 27.024,97.863 0,97.863 -27.024,97.863 -48.931,75.955 -48.931,48.931 -48.931,21.907 -27.024,0 0,0" style="fill:#409987;fill-opacity:1;fill-rule:nonzero;stroke:none" id="path4156" />
					</g>
					<g id="g4158" transform="translate(239.3924,377.5603)">
						<path d="M 0,0 C -0.068,0.028 -0.312,0.131 -0.732,0.308 L -4,8.627 l -1.836,0 -3.268,-8.319 C -9.521,0.131 -9.765,0.029 -9.836,0 c -0.176,-0.074 -0.265,-0.188 -0.265,-0.342 l 0,-0.682 0.474,0 1.045,0 0.223,0 0.127,0 1.392,0 0,0.682 c 0,0.154 -0.088,0.268 -0.265,0.342 -0.031,0.013 -0.12,0.05 -0.266,0.112 l 0.031,0.084 0.5,1.37 3.845,0 0.479,-1.314 0.052,-0.14 C -2.61,0.05 -2.699,0.013 -2.731,0 -2.908,-0.074 -2.996,-0.188 -2.996,-0.342 l 0,-0.682 1.399,0 0.12,0 0.223,0 1.045,0 0.474,0 0,0.682 C 0.265,-0.188 0.177,-0.073 0,0 m -5.282,5.818 c 0.058,0.147 0.117,0.319 0.177,0.514 0.06,0.193 0.121,0.405 0.184,0.634 0.062,-0.228 0.125,-0.438 0.19,-0.631 0.063,-0.191 0.122,-0.359 0.177,-0.504 l 1.097,-2.998 -2.921,0 1.096,2.985 z m 15.106,2.809 -1.795,0 -1.07,0 0,-0.783 C 6.959,7.613 7.07,7.474 7.293,7.427 7.313,7.423 7.346,7.418 7.392,7.411 7.437,7.405 7.513,7.393 7.62,7.376 7.726,7.358 7.862,7.335 8.029,7.306 l 0,-4.459 C 8.029,2.478 7.979,2.144 7.879,1.846 7.779,1.548 7.634,1.294 7.445,1.085 7.255,0.875 7.024,0.713 6.751,0.597 6.477,0.482 6.167,0.424 5.819,0.424 5.472,0.424 5.161,0.482 4.888,0.597 4.614,0.713 4.384,0.876 4.197,1.088 4.01,1.299 3.866,1.554 3.766,1.852 3.666,2.151 3.616,2.484 3.616,2.854 l 0,4.452 C 3.782,7.335 3.918,7.358 4.024,7.376 4.13,7.393 4.206,7.405 4.252,7.411 4.298,7.418 4.33,7.423 4.35,7.427 4.573,7.474 4.685,7.613 4.685,7.844 l 0,0.783 -1.07,0 -1.794,0 -1.011,0 0,-0.783 C 0.81,7.613 0.921,7.474 1.144,7.427 1.164,7.423 1.192,7.418 1.228,7.411 1.264,7.405 1.33,7.393 1.427,7.376 1.523,7.359 1.654,7.336 1.821,7.306 l 0,-4.458 C 1.821,2.273 1.914,1.742 2.098,1.255 2.283,0.768 2.547,0.347 2.892,-0.007 3.237,-0.36 3.656,-0.636 4.15,-0.834 4.644,-1.032 5.2,-1.131 5.819,-1.131 c 0.619,0 1.175,0.099 1.669,0.297 0.494,0.198 0.915,0.474 1.262,0.827 0.346,0.354 0.612,0.775 0.797,1.262 0.184,0.487 0.277,1.018 0.277,1.593 l 0,4.458 c 0.166,0.03 0.298,0.053 0.394,0.07 0.097,0.018 0.163,0.03 0.199,0.036 0.036,0.007 0.064,0.012 0.084,0.015 0.223,0.048 0.334,0.187 0.334,0.417 l 0,0.783 -1.011,0 z m 7.17,-4.812 0,-1.014 c 0,-0.094 0.033,-0.173 0.1,-0.237 0.066,-0.065 0.158,-0.097 0.273,-0.097 l 1.209,0 0,-1.756 C 18.304,0.582 18.018,0.48 17.718,0.407 17.417,0.334 17.065,0.297 16.66,0.297 c -0.459,0 -0.882,0.079 -1.269,0.237 -0.387,0.158 -0.721,0.386 -1.001,0.684 -0.281,0.299 -0.499,0.665 -0.655,1.099 -0.155,0.434 -0.233,0.928 -0.233,1.484 0,0.517 0.073,0.984 0.22,1.403 0.147,0.419 0.356,0.777 0.628,1.075 0.271,0.299 0.599,0.528 0.984,0.688 0.385,0.161 0.816,0.241 1.292,0.24 0.859,0 1.62,-0.112 2.283,-0.336 0.055,-0.578 0.093,-0.925 0.114,-1.043 0.036,-0.166 0.14,-0.249 0.312,-0.249 l 0.549,0 0.162,0 0.057,0 10e-4,2.47 c -1.242,0.458 -2.381,0.687 -3.418,0.687 l -0.008,0 c -0.03,0 -0.058,0 -0.085,-0.002 C 15.858,8.725 15.194,8.605 14.603,8.376 13.985,8.135 13.458,7.797 13.025,7.361 12.591,6.925 12.256,6.404 12.021,5.798 11.785,5.193 11.667,4.527 11.667,3.801 c 0,-0.716 0.121,-1.377 0.364,-1.982 0.242,-0.605 0.579,-1.126 1.01,-1.562 0.432,-0.436 0.944,-0.776 1.536,-1.021 0.591,-0.244 1.239,-0.367 1.942,-0.367 0.396,0 0.765,0.021 1.108,0.064 0.343,0.042 0.665,0.105 0.965,0.19 0.3,0.084 0.582,0.192 0.848,0.323 0.264,0.131 0.519,0.286 0.763,0.464 l 0,3.905 -3.209,0 z m 13.355,4.812 -1.794,0 -1.07,0 0,-0.783 c 0,-0.231 0.111,-0.37 0.334,-0.417 0.02,-0.004 0.053,-0.009 0.098,-0.016 0.046,-0.006 0.122,-0.018 0.228,-0.035 0.107,-0.018 0.243,-0.041 0.41,-0.07 l 0,-4.459 c 0,-0.369 -0.05,-0.703 -0.15,-1.001 C 28.304,1.548 28.16,1.294 27.97,1.085 27.781,0.875 27.55,0.713 27.276,0.597 27.003,0.482 26.692,0.424 26.345,0.424 c -0.348,0 -0.658,0.058 -0.932,0.173 -0.273,0.116 -0.504,0.279 -0.691,0.491 -0.187,0.211 -0.33,0.466 -0.43,0.764 -0.1,0.299 -0.15,0.632 -0.15,1.002 l 0,4.452 c 0.166,0.029 0.302,0.052 0.408,0.07 0.106,0.017 0.182,0.029 0.228,0.035 0.045,0.007 0.078,0.012 0.098,0.016 0.223,0.047 0.334,0.186 0.334,0.417 l 0,0.783 -1.07,0 -1.793,0 -1.011,0 0,-0.783 c 0,-0.231 0.111,-0.37 0.334,-0.417 0.019,-0.004 0.047,-0.009 0.084,-0.016 0.036,-0.006 0.102,-0.018 0.198,-0.035 0.097,-0.017 0.228,-0.04 0.395,-0.07 l 0,-4.458 c 0,-0.575 0.092,-1.106 0.277,-1.593 0.184,-0.487 0.449,-0.908 0.794,-1.262 0.344,-0.353 0.764,-0.629 1.258,-0.827 0.494,-0.198 1.05,-0.297 1.669,-0.297 0.618,0 1.175,0.099 1.669,0.297 0.494,0.198 0.914,0.474 1.261,0.827 0.347,0.354 0.613,0.775 0.797,1.262 0.185,0.487 0.277,1.018 0.277,1.593 l 0,4.458 c 0.167,0.03 0.298,0.053 0.395,0.07 0.096,0.018 0.163,0.03 0.199,0.036 0.036,0.007 0.064,0.012 0.084,0.015 0.222,0.048 0.334,0.187 0.334,0.417 l 0,0.783 -1.012,0 z M 38.603,3.02 c -0.127,0.281 -0.295,0.518 -0.504,0.711 -0.21,0.194 -0.448,0.354 -0.714,0.481 -0.266,0.126 -0.539,0.238 -0.818,0.334 -0.278,0.095 -0.551,0.186 -0.818,0.27 -0.267,0.085 -0.505,0.18 -0.714,0.287 -0.209,0.107 -0.377,0.236 -0.504,0.388 -0.127,0.151 -0.19,0.34 -0.19,0.567 0,0.178 0.031,0.341 0.093,0.491 0.063,0.149 0.157,0.277 0.284,0.384 0.127,0.106 0.282,0.19 0.467,0.25 0.185,0.06 0.402,0.09 0.651,0.09 0.698,0 1.215,-0.075 1.552,-0.225 0.058,-0.6 0.097,-0.96 0.118,-1.081 0.036,-0.166 0.14,-0.249 0.311,-0.249 l 0.55,0 0.162,0 0.057,0 0,2.469 c -0.899,0.365 -1.822,0.547 -2.77,0.547 -0.503,0 -0.95,-0.078 -1.342,-0.233 C 34.083,8.345 33.753,8.138 33.484,7.88 33.214,7.622 33.01,7.326 32.87,6.993 32.73,6.659 32.66,6.316 32.66,5.965 c 0,-0.441 0.063,-0.811 0.19,-1.112 0.127,-0.3 0.294,-0.551 0.503,-0.751 0.21,-0.2 0.448,-0.363 0.714,-0.487 0.267,-0.125 0.539,-0.232 0.814,-0.321 0.274,-0.088 0.545,-0.17 0.815,-0.247 0.267,-0.075 0.505,-0.168 0.714,-0.277 0.209,-0.109 0.377,-0.244 0.504,-0.404 0.128,-0.16 0.191,-0.367 0.191,-0.621 0,-0.454 -0.14,-0.802 -0.42,-1.044 -0.281,-0.243 -0.677,-0.364 -1.189,-0.364 -0.831,0 -1.438,0.059 -1.823,0.177 -0.059,0.613 -0.099,0.981 -0.12,1.102 -0.036,0.166 -0.14,0.249 -0.311,0.249 l -0.55,0 -0.162,0 -0.057,0 0,-2.246 0,-0.236 c 0.99,-0.339 1.914,-0.509 2.771,-0.509 0.077,-0.003 0.143,-0.005 0.199,-0.005 0.534,0 1.008,0.081 1.422,0.244 0.414,0.162 0.764,0.385 1.051,0.667 0.287,0.282 0.505,0.614 0.654,0.994 0.149,0.381 0.223,0.789 0.223,1.225 0,0.401 -0.063,0.741 -0.19,1.021 m 9.077,5.607 -0.008,0 -7.584,0 -0.021,0 -0.198,0 0,-2.282 0.057,0 0.162,0 0.549,0 c 0.172,0 0.276,0.083 0.312,0.248 0.013,0.078 0.036,0.265 0.066,0.56 l 1.971,0 0,-6.856 C 42.819,0.268 42.687,0.244 42.591,0.227 42.495,0.21 42.429,0.198 42.392,0.191 42.356,0.185 42.328,0.18 42.308,0.177 42.085,0.129 41.974,-0.01 41.974,-0.24 l 0,-0.784 1.012,0 1.795,0 1.008,0 0,0.784 c 0,0.23 -0.111,0.369 -0.333,0.417 -0.02,0.003 -0.048,0.008 -0.084,0.015 -0.036,0.007 -0.102,0.019 -0.198,0.036 -0.096,0.017 -0.227,0.04 -0.393,0.07 l 0,6.855 1.964,0 c 0.03,-0.296 0.052,-0.482 0.066,-0.56 0.036,-0.166 0.139,-0.248 0.311,-0.248 l 0.55,0 0.162,0 0.057,0 0,2.282 -0.211,0 z m 10.31,0 -1.794,0 -1.07,0 0,-0.783 c 0,-0.231 0.111,-0.37 0.334,-0.417 0.02,-0.004 0.053,-0.009 0.098,-0.016 0.046,-0.006 0.122,-0.018 0.228,-0.035 0.107,-0.018 0.243,-0.041 0.41,-0.07 l 0,-4.459 c 0,-0.369 -0.05,-0.703 -0.15,-1.001 C 55.945,1.548 55.801,1.294 55.611,1.085 55.422,0.875 55.191,0.713 54.917,0.597 54.644,0.482 54.333,0.424 53.986,0.424 c -0.348,0 -0.658,0.058 -0.932,0.173 -0.273,0.116 -0.504,0.279 -0.691,0.491 -0.187,0.211 -0.33,0.466 -0.43,0.764 -0.1,0.299 -0.15,0.632 -0.15,1.002 l 0,4.452 c 0.166,0.029 0.302,0.052 0.408,0.07 0.106,0.017 0.182,0.029 0.228,0.035 0.045,0.007 0.078,0.012 0.098,0.016 0.223,0.047 0.334,0.186 0.334,0.417 l 0,0.783 -1.07,0 -1.793,0 -1.011,0 0,-0.783 c 0,-0.231 0.111,-0.37 0.334,-0.417 0.019,-0.004 0.047,-0.009 0.083,-0.016 0.037,-0.006 0.103,-0.018 0.199,-0.035 0.097,-0.017 0.228,-0.04 0.395,-0.07 l 0,-4.458 c 0,-0.575 0.092,-1.106 0.277,-1.593 0.184,-0.487 0.449,-0.908 0.794,-1.262 0.344,-0.353 0.764,-0.629 1.258,-0.827 0.494,-0.198 1.05,-0.297 1.669,-0.297 0.618,0 1.175,0.099 1.669,0.297 0.494,0.198 0.914,0.474 1.261,0.827 0.347,0.354 0.613,0.775 0.797,1.262 0.185,0.487 0.277,1.018 0.277,1.593 l 0,4.458 c 0.167,0.03 0.298,0.053 0.395,0.07 0.096,0.018 0.163,0.03 0.199,0.036 0.036,0.007 0.064,0.012 0.084,0.015 0.222,0.048 0.334,0.187 0.334,0.417 l 0,0.783 -1.012,0 z M 66.244,3.02 C 66.117,3.301 65.949,3.538 65.74,3.731 65.53,3.925 65.292,4.085 65.026,4.212 64.76,4.338 64.487,4.45 64.208,4.546 63.93,4.641 63.657,4.732 63.39,4.816 c -0.267,0.085 -0.505,0.18 -0.714,0.287 -0.209,0.107 -0.377,0.236 -0.504,0.388 -0.127,0.151 -0.19,0.34 -0.19,0.567 0,0.178 0.031,0.341 0.093,0.491 0.063,0.149 0.157,0.277 0.284,0.384 0.127,0.106 0.282,0.19 0.467,0.25 0.185,0.06 0.402,0.09 0.651,0.09 0.698,0 1.215,-0.075 1.552,-0.225 0.058,-0.6 0.097,-0.96 0.118,-1.081 0.036,-0.166 0.14,-0.249 0.311,-0.249 l 0.55,0 0.162,0 0.057,0 0,2.469 c -0.899,0.365 -1.822,0.547 -2.77,0.547 -0.503,0 -0.95,-0.078 -1.342,-0.233 C 61.724,8.345 61.394,8.138 61.125,7.88 60.855,7.622 60.651,7.326 60.511,6.993 c -0.14,-0.334 -0.21,-0.677 -0.21,-1.028 0,-0.441 0.063,-0.811 0.19,-1.112 0.127,-0.3 0.294,-0.551 0.503,-0.751 0.21,-0.2 0.448,-0.363 0.714,-0.487 0.267,-0.125 0.539,-0.232 0.814,-0.321 0.274,-0.088 0.545,-0.17 0.815,-0.247 0.267,-0.075 0.505,-0.168 0.714,-0.277 0.209,-0.109 0.377,-0.244 0.504,-0.404 0.128,-0.16 0.191,-0.367 0.191,-0.621 0,-0.454 -0.14,-0.802 -0.42,-1.044 -0.281,-0.243 -0.677,-0.364 -1.189,-0.364 -0.831,0 -1.438,0.059 -1.823,0.177 -0.059,0.613 -0.099,0.981 -0.12,1.102 -0.036,0.166 -0.14,0.249 -0.311,0.249 l -0.55,0 -0.162,0 -0.057,0 0,-2.246 0,-0.236 c 0.99,-0.339 1.914,-0.509 2.771,-0.509 0.077,-0.003 0.143,-0.005 0.199,-0.005 0.534,0 1.008,0.081 1.422,0.244 0.414,0.162 0.764,0.385 1.051,0.667 0.287,0.282 0.505,0.614 0.654,0.994 0.149,0.381 0.223,0.789 0.223,1.225 0,0.401 -0.063,0.741 -0.19,1.021" style="fill:#373535;fill-opacity:1;fill-rule:nonzero;stroke:none" id="path4160" />
					</g>
					<g id="g4162" transform="translate(259.3021,361.7609)">
						<path d="m 0,0 0,0.935 -0.71,0 C -0.881,0.935 -0.985,0.852 -1.02,0.686 -1.029,0.638 -1.048,0.439 -1.077,0.088 l -2.131,0 C -3.395,0.088 -3.59,0.071 -3.795,0.038 -4,0.005 -4.209,-0.043 -4.422,-0.105 l 2.176,2.223 c 0.26,0.269 0.507,0.531 0.741,0.787 0.235,0.258 0.441,0.525 0.617,0.802 0.175,0.275 0.315,0.565 0.419,0.867 0.103,0.303 0.155,0.632 0.155,0.988 0,0.414 -0.073,0.79 -0.22,1.129 -0.147,0.338 -0.351,0.627 -0.614,0.867 -0.262,0.24 -0.578,0.426 -0.947,0.557 -0.37,0.131 -0.777,0.197 -1.221,0.197 -0.428,0 -0.827,-0.059 -1.199,-0.177 C -4.886,8.017 -5.215,7.841 -5.502,7.608 -5.79,7.374 -6.029,7.083 -6.22,6.734 -6.411,6.385 -6.54,5.979 -6.607,5.516 l 0.868,-0.154 c 0.08,-0.013 0.153,-0.02 0.22,-0.02 0.151,0 0.276,0.037 0.374,0.11 0.097,0.074 0.171,0.195 0.22,0.364 0.102,0.338 0.281,0.608 0.537,0.808 0.256,0.2 0.582,0.3 0.978,0.3 0.214,0 0.406,-0.03 0.577,-0.09 0.172,-0.06 0.32,-0.15 0.444,-0.27 0.125,-0.12 0.221,-0.268 0.287,-0.444 0.067,-0.176 0.1,-0.38 0.1,-0.611 0,-0.254 -0.034,-0.495 -0.103,-0.724 C -2.174,4.556 -2.274,4.33 -2.406,4.107 -2.537,3.884 -2.699,3.66 -2.893,3.433 -3.086,3.207 -3.305,2.969 -3.55,2.719 l -2.93,-2.938 c -0.103,-0.102 -0.177,-0.213 -0.224,-0.333 -0.047,-0.12 -0.07,-0.236 -0.07,-0.347 l 0,-0.547 6.229,0 0.392,0 0.152,0 L 0,0 Z M 8.244,3.379 C 8.244,4.225 8.153,4.957 7.973,5.576 7.793,6.194 7.544,6.706 7.226,7.111 6.908,7.516 6.532,7.817 6.098,8.015 5.664,8.213 5.196,8.312 4.693,8.312 4.19,8.312 3.724,8.213 3.294,8.015 2.865,7.817 2.492,7.516 2.176,7.111 1.861,6.706 1.614,6.194 1.436,5.576 1.258,4.957 1.169,4.225 1.169,3.379 c 0,-0.841 0.089,-1.572 0.267,-2.193 0.178,-0.62 0.425,-1.133 0.74,-1.538 0.316,-0.405 0.689,-0.706 1.118,-0.904 0.43,-0.198 0.896,-0.297 1.399,-0.297 0.503,0 0.971,0.099 1.405,0.297 0.434,0.198 0.81,0.499 1.128,0.904 0.318,0.405 0.567,0.918 0.747,1.538 0.18,0.621 0.271,1.352 0.271,2.193 m -1.702,0 C 6.542,2.681 6.491,2.102 6.389,1.644 6.286,1.185 6.149,0.82 5.978,0.549 5.807,0.277 5.61,0.087 5.387,-0.022 5.165,-0.131 4.933,-0.185 4.693,-0.185 4.457,-0.185 4.229,-0.131 4.008,-0.022 3.788,0.087 3.593,0.277 3.424,0.549 3.255,0.82 3.121,1.185 3.02,1.644 2.92,2.102 2.87,2.681 2.87,3.379 2.87,4.078 2.92,4.657 3.02,5.115 3.12,5.574 3.255,5.938 3.424,6.21 3.593,6.481 3.788,6.672 4.008,6.781 4.229,6.89 4.457,6.944 4.693,6.944 4.933,6.944 5.165,6.89 5.387,6.781 5.61,6.672 5.807,6.481 5.978,6.21 6.149,5.938 6.286,5.574 6.389,5.115 6.491,4.657 6.542,4.078 6.542,3.379 m 8.601,-3.718 c -0.084,0.015 -0.572,0.057 -1.466,0.127 l 0,8.43 -1.354,0 L 9.379,5.715 9.9,5.001 c 0.035,-0.049 0.09,-0.092 0.163,-0.13 0.074,-0.038 0.155,-0.057 0.244,-0.057 0.058,0 0.117,0.009 0.177,0.027 0.06,0.017 0.119,0.051 0.177,0.1 l 1.388,1.161 c -0.013,-0.24 -0.02,-0.469 -0.02,-0.687 l 0,-5.61 c -1.034,-0.08 -1.596,-0.128 -1.686,-0.144 -0.18,-0.038 -0.27,-0.151 -0.269,-0.337 l 0,-0.77 2.621,0 0.096,0 2.621,0 0,0.77 c 0,0.186 -0.09,0.299 -0.269,0.337 m 1.425,8.544 0,-1.114 c 0,-0.004 0,-0.009 10e-4,-0.015 0.001,-0.007 0,-0.011 -10e-4,-0.013 l 0,-1.437 0.71,0 c 0.171,0 0.275,0.083 0.31,0.249 0.023,0.129 0.052,0.407 0.089,0.836 l 3.888,0 C 21.374,6.492 21.2,6.232 21.045,5.93 l -3.738,-7.376 1.194,0 c 0.236,0 0.423,0.054 0.561,0.163 0.138,0.109 0.245,0.242 0.321,0.398 l 3.651,7.529 c 0.044,0.089 0.09,0.199 0.136,0.33 0.047,0.131 0.07,0.303 0.07,0.517 l 0,0.714 -6.672,0 z" style="fill:#373535;fill-opacity:1;fill-rule:nonzero;stroke:none" id="path4164" />
					</g>
					<g id="g4166" transform="translate(252.9277,394.2039)">
						<path d="m 0,0 0,0.935 -0.71,0 C -0.881,0.935 -0.985,0.852 -1.02,0.686 -1.029,0.638 -1.048,0.439 -1.077,0.088 l -2.131,0 C -3.395,0.088 -3.59,0.071 -3.795,0.038 -4,0.005 -4.209,-0.043 -4.422,-0.105 l 2.176,2.223 c 0.26,0.269 0.507,0.531 0.741,0.787 0.235,0.258 0.441,0.525 0.617,0.802 0.175,0.275 0.315,0.565 0.419,0.867 0.103,0.303 0.155,0.632 0.155,0.988 0,0.414 -0.073,0.79 -0.22,1.129 -0.147,0.338 -0.351,0.627 -0.614,0.867 -0.262,0.24 -0.578,0.426 -0.947,0.557 -0.37,0.131 -0.777,0.197 -1.221,0.197 -0.428,0 -0.827,-0.059 -1.199,-0.177 C -4.886,8.017 -5.215,7.841 -5.502,7.608 -5.79,7.374 -6.029,7.083 -6.22,6.734 -6.411,6.385 -6.54,5.979 -6.607,5.516 l 0.868,-0.154 c 0.08,-0.013 0.153,-0.02 0.22,-0.02 0.151,0 0.276,0.037 0.374,0.11 0.097,0.074 0.171,0.195 0.22,0.364 0.102,0.338 0.281,0.608 0.537,0.808 0.256,0.2 0.582,0.3 0.978,0.3 0.214,0 0.406,-0.03 0.577,-0.09 0.172,-0.06 0.32,-0.15 0.444,-0.27 0.125,-0.12 0.221,-0.268 0.287,-0.444 0.067,-0.176 0.1,-0.38 0.1,-0.611 0,-0.254 -0.034,-0.495 -0.103,-0.724 C -2.174,4.556 -2.274,4.33 -2.406,4.107 -2.537,3.884 -2.699,3.66 -2.893,3.433 -3.086,3.207 -3.305,2.969 -3.55,2.719 l -2.93,-2.938 c -0.103,-0.102 -0.177,-0.213 -0.224,-0.333 -0.047,-0.12 -0.07,-0.236 -0.07,-0.347 l 0,-0.547 6.229,0 0.392,0 0.152,0 L 0,0 Z m 7.202,7.505 0,0.7 -4.765,0 L 1.636,3.52 2.664,3.226 C 3.136,3.395 3.605,3.48 4.072,3.48 4.664,3.48 5.113,3.332 5.417,3.036 5.722,2.74 5.875,2.329 5.875,1.804 5.875,1.519 5.836,1.256 5.758,1.013 5.68,0.77 5.564,0.561 5.411,0.385 5.257,0.21 5.065,0.073 4.833,-0.025 4.602,-0.123 4.335,-0.172 4.032,-0.172 3.748,-0.172 3.505,-0.136 3.305,-0.065 3.105,0.006 2.929,0.084 2.778,0.168 2.626,0.253 2.494,0.331 2.38,0.402 2.267,0.473 2.155,0.508 2.043,0.508 1.865,0.508 1.723,0.432 1.616,0.281 L 1.109,-0.42 c 0.16,-0.152 0.341,-0.295 0.544,-0.431 0.202,-0.136 0.423,-0.256 0.661,-0.361 0.238,-0.104 0.492,-0.188 0.764,-0.25 0.271,-0.06 0.558,-0.091 0.861,-0.091 0.516,0 0.993,0.082 1.432,0.247 0.438,0.164 0.817,0.397 1.138,0.697 0.32,0.3 0.57,0.662 0.75,1.085 0.18,0.422 0.27,0.89 0.27,1.402 0,0.414 -0.066,0.8 -0.2,1.158 C 7.196,3.394 6.998,3.707 6.735,3.974 6.473,4.24 6.149,4.449 5.765,4.601 5.38,4.752 4.934,4.828 4.426,4.828 4.066,4.828 3.668,4.783 3.231,4.694 l 0.348,2.017 2.656,0 c 0.347,0 0.595,0.073 0.744,0.22 0.149,0.147 0.223,0.338 0.223,0.574 m 5.374,-5.607 3.457,0 0,1.374 -3.457,0 0,-1.374 z M 24.618,8.312 C 24.191,8.312 23.791,8.253 23.42,8.135 23.048,8.017 22.719,7.842 22.432,7.608 22.145,7.375 21.905,7.083 21.714,6.734 21.523,6.385 21.394,5.978 21.327,5.515 l 0.868,-0.153 c 0.08,-0.013 0.155,-0.02 0.227,-0.02 0.151,0 0.273,0.037 0.367,0.11 0.093,0.073 0.167,0.195 0.22,0.364 0.102,0.325 0.283,0.591 0.541,0.798 0.258,0.207 0.583,0.31 0.974,0.31 0.432,0 0.772,-0.117 1.022,-0.35 0.249,-0.234 0.373,-0.58 0.373,-1.039 0,-0.213 -0.031,-0.409 -0.093,-0.587 C 25.764,4.77 25.653,4.617 25.496,4.491 25.338,4.364 25.125,4.265 24.858,4.193 24.591,4.122 24.255,4.084 23.85,4.08 l 0,-1.174 c 0.49,0 0.88,-0.038 1.172,-0.114 0.291,-0.075 0.515,-0.18 0.67,-0.313 0.156,-0.134 0.259,-0.295 0.307,-0.484 0.049,-0.19 0.074,-0.4 0.074,-0.631 C 26.073,1.181 26.038,1 25.969,0.819 25.9,0.639 25.796,0.476 25.656,0.329 25.516,0.182 25.341,0.063 25.132,-0.029 24.923,-0.12 24.678,-0.165 24.397,-0.165 c -0.249,0 -0.463,0.036 -0.644,0.11 -0.18,0.073 -0.337,0.169 -0.47,0.287 -0.134,0.118 -0.248,0.252 -0.344,0.404 -0.096,0.151 -0.184,0.305 -0.264,0.461 -0.049,0.093 -0.119,0.164 -0.21,0.213 -0.091,0.049 -0.195,0.074 -0.31,0.074 -0.129,0 -0.256,-0.027 -0.381,-0.08 L 21.047,1.003 c 0.133,-0.414 0.293,-0.779 0.48,-1.095 0.187,-0.316 0.414,-0.583 0.681,-0.801 0.267,-0.217 0.581,-0.382 0.941,-0.493 0.361,-0.111 0.783,-0.167 1.268,-0.167 0.446,0 0.867,0.065 1.265,0.194 0.399,0.128 0.749,0.319 1.051,0.57 0.303,0.251 0.543,0.561 0.721,0.931 0.178,0.369 0.267,0.794 0.267,1.275 0,0.565 -0.143,1.035 -0.427,1.409 -0.285,0.373 -0.716,0.651 -1.295,0.834 0.241,0.08 0.455,0.18 0.644,0.3 0.189,0.12 0.349,0.267 0.481,0.44 0.131,0.174 0.231,0.378 0.3,0.611 0.069,0.234 0.103,0.504 0.103,0.812 0,0.351 -0.068,0.678 -0.203,0.981 -0.136,0.303 -0.331,0.566 -0.584,0.791 -0.254,0.224 -0.559,0.4 -0.917,0.527 -0.359,0.126 -0.76,0.19 -1.205,0.19 M 35.964,3.379 c 0,0.846 -0.09,1.578 -0.27,2.197 -0.18,0.618 -0.429,1.13 -0.747,1.535 -0.318,0.405 -0.694,0.706 -1.128,0.904 -0.434,0.198 -0.902,0.297 -1.405,0.297 -0.503,0 -0.97,-0.099 -1.399,-0.297 C 30.585,7.817 30.213,7.516 29.897,7.111 29.581,6.706 29.334,6.194 29.156,5.576 28.979,4.957 28.89,4.225 28.89,3.379 c 0,-0.841 0.089,-1.572 0.266,-2.193 0.178,-0.62 0.425,-1.133 0.741,-1.538 0.316,-0.405 0.688,-0.706 1.118,-0.904 0.429,-0.198 0.896,-0.297 1.399,-0.297 0.503,0 0.971,0.099 1.405,0.297 0.434,0.198 0.81,0.499 1.128,0.904 0.318,0.405 0.567,0.918 0.747,1.538 0.18,0.621 0.27,1.352 0.27,2.193 m -1.701,0 C 34.263,2.681 34.212,2.102 34.109,1.644 34.007,1.185 33.87,0.82 33.699,0.549 33.527,0.277 33.331,0.087 33.108,-0.022 c -0.223,-0.109 -0.454,-0.163 -0.694,-0.163 -0.236,0 -0.464,0.054 -0.685,0.163 -0.22,0.109 -0.415,0.299 -0.584,0.571 -0.169,0.271 -0.304,0.636 -0.404,1.095 -0.1,0.458 -0.15,1.037 -0.15,1.735 0,0.699 0.05,1.278 0.15,1.736 0.1,0.459 0.235,0.823 0.404,1.095 0.169,0.271 0.364,0.462 0.584,0.571 0.221,0.109 0.449,0.163 0.685,0.163 0.24,0 0.471,-0.054 0.694,-0.163 0.223,-0.109 0.419,-0.3 0.591,-0.571 0.171,-0.272 0.308,-0.636 0.41,-1.095 0.103,-0.458 0.154,-1.037 0.154,-1.736" style="fill:#373535;fill-opacity:1;fill-rule:nonzero;stroke:none" id="path4168" />
					</g>
					<g id="g4170" transform="translate(267.5592,332.4308)">
						<path d="M 0,0 C 27.024,0 48.931,21.907 48.931,48.931 48.931,75.955 27.024,97.863 0,97.863 -27.024,97.863 -48.931,75.955 -48.931,48.931 -48.931,21.907 -27.024,0 0,0 Z" style="fill:none;stroke:#373535;stroke-width:1.90499997;stroke-linecap:round;stroke-linejoin:round;stroke-miterlimit:4;stroke-dasharray:none;stroke-opacity:1" id="path4172" />
					</g>
					<g id="g4174" transform="translate(132.3564,343.8743)">
						<path d="m 0,0 17.426,18.663 c 0,0 1.331,-30.17 7.657,-43.819 0,0 8.48,43.153 19.553,65.458 0,0 22.219,-32.958 17.978,-60.922 0,0 12.738,5.659 16.732,18.31 0,0 21.974,-24.968 7.071,-59.924 0,0 -7.691,-24.635 -38.364,-24.635 C -23.855,-86.869 -22.12,-21.972 0,0" style="fill:#edcb5b;fill-opacity:1;fill-rule:nonzero;stroke:none" id="path4176" />
					</g>
					<g id="g4178" transform="translate(167.4004,291.3699)">
						<path d="m 0,0 c 0,0 4.035,20.531 9.303,31.143 0,0 8.538,-18.766 6.521,-32.071 0,0 12.581,5.779 14.481,11.797 0,0 5.967,-11.879 -1.123,-28.509" style="fill:#d3373b;fill-opacity:1;fill-rule:nonzero;stroke:none" id="path4180" />
					</g>
					<g id="g4182" transform="translate(188.7898,273.1609)">
						<path d="m 0,0 c -0.469,0 -0.944,0.093 -1.401,0.288 -1.821,0.776 -2.668,2.879 -1.891,4.699 3.418,8.019 3.532,14.749 2.896,19.279 -4.316,-3.809 -9.929,-6.519 -11.465,-7.225 -1.199,-0.549 -2.6,-0.399 -3.649,0.394 -1.052,0.792 -1.584,2.096 -1.388,3.398 1.031,6.787 -1.04,15.378 -3.068,21.636 -3.337,-10.02 -5.669,-21.783 -5.699,-21.936 -0.382,-1.943 -2.283,-3.198 -4.204,-2.825 -1.942,0.382 -3.206,2.264 -2.824,4.206 0.168,0.857 4.188,21.128 9.609,32.045 0.616,1.238 1.952,2.028 3.269,1.988 1.383,-0.023 2.628,-0.84 3.199,-2.098 0.311,-0.683 6.538,-14.528 7.105,-27.376 3.397,2.135 6.596,4.716 7.221,6.697 0.441,1.391 1.677,2.376 3.132,2.492 C 2.318,35.787 3.672,35 4.328,33.7 4.6,33.154 10.952,20.13 3.297,2.178 2.716,0.817 1.392,0 0,0" style="fill:#373535;fill-opacity:1;fill-rule:nonzero;stroke:none" id="path4184" />
					</g>
					<g id="g4186" transform="translate(171.2368,259.2039)">
						<path d="m 0,0 c -41.25,0 -55.967,20.76 -61.069,33.135 -9.049,21.953 -1.772,47.674 10.49,59.857 l 17.334,18.566 c 0.984,1.054 2.499,1.415 3.859,0.915 1.352,-0.499 2.273,-1.761 2.336,-3.202 0.012,-0.216 0.753,-16.188 3.521,-29.722 3.432,14.705 9.56,38.002 16.905,52.795 0.566,1.142 1.699,1.897 2.97,1.982 1.255,0.08 2.495,-0.515 3.209,-1.572 0.86,-1.276 19.411,-29.136 19.124,-56.112 3.379,2.65 7.38,6.812 9.199,12.576 0.389,1.233 1.413,2.159 2.676,2.426 1.257,0.268 2.572,-0.169 3.428,-1.138 C 34.94,89.418 57.224,63.474 41.707,26.92 40.77,24.28 31.293,0 0,0 M -33.637,100.643 -45.435,88.006 C -55.893,77.615 -62.249,54.79 -54.447,35.865 -49.049,22.772 -35.22,7.163 0,7.163 c 27.719,0 34.877,21.9 34.947,22.121 0.035,0.114 0.077,0.227 0.124,0.337 10.276,24.106 2.108,42.937 -3.069,51.366 -5.722,-9.77 -15.498,-14.212 -15.986,-14.43 -1.196,-0.532 -2.586,-0.368 -3.628,0.426 -1.04,0.793 -1.564,2.091 -1.368,3.384 2.98,19.642 -8.098,42.359 -13.974,52.715 -9.392,-22.625 -16.425,-58.089 -16.502,-58.479 -0.298,-1.522 -1.543,-2.679 -3.084,-2.865 -1.546,-0.19 -3.027,0.642 -3.68,2.05 -4.481,9.674 -6.545,26.685 -7.417,36.855" style="fill:#373535;fill-opacity:1;fill-rule:nonzero;stroke:none" id="path4188" />
					</g>
				</g>
			</g>
			<g id="g4190" transform="translate(118.2885,256.3788)">
				<path d="M 0,0 -11.587,-27.296 104.002,-76.361 115.589,-49.065 0,0 Z" style="fill:#93563a;fill-opacity:1;fill-rule:nonzero;stroke:none" id="path4192" />
			</g>
			<g id="g4194" transform="translate(118.2885,256.3788)">
				<path d="m 0,0 -5.455,-12.852 115.588,-49.065 5.456,12.852 L 0,0 Z" style="fill:#bf977e;fill-opacity:1;fill-rule:nonzero;stroke:none" id="path4196" />
			</g>
			<g id="g4198" transform="translate(114.1395,263.2938)">
				<path d="M 0,0 -11.587,-27.296 104.002,-76.361 115.589,-49.065 0,0 Z" style="fill:none;stroke:#373535;stroke-width:4.0999999;stroke-linecap:round;stroke-linejoin:round;stroke-miterlimit:4;stroke-dasharray:none;stroke-opacity:1" id="path4200" />
			</g>
			<g id="g4202" transform="translate(111.4018,254.1093)">
				<path d="M 0,0 30.33,-12.874" style="fill:none;stroke:#373535;stroke-width:1.53999996;stroke-linecap:round;stroke-linejoin:round;stroke-miterlimit:4;stroke-dasharray:none;stroke-opacity:1" id="path4204" />
			</g>
			<g id="g4206" transform="translate(113.1955,258.3351)">
				<path d="M 0,0 12.425,-5.274" style="fill:none;stroke:#373535;stroke-width:1.53999996;stroke-linecap:round;stroke-linejoin:round;stroke-miterlimit:4;stroke-dasharray:none;stroke-opacity:1" id="path4208" />
			</g>
			<g id="g4210" transform="translate(114.8335,246.8919)">
				<path d="M 0,0 -5.504,2.336" style="fill:none;stroke:#373535;stroke-width:1.53999996;stroke-linecap:round;stroke-linejoin:round;stroke-miterlimit:4;stroke-dasharray:none;stroke-opacity:1" id="path4212" />
			</g>
			<g id="g4214" transform="translate(200.4875,208.8605)">
				<path d="M 0,0 23.2,-9.848" style="fill:none;stroke:#373535;stroke-width:1.53999996;stroke-linecap:round;stroke-linejoin:round;stroke-miterlimit:4;stroke-dasharray:none;stroke-opacity:1" id="path4216" />
			</g>
			<g id="g4218" transform="translate(209.8757,196.7549)">
				<path d="M 0,0 10.891,-4.623" style="fill:none;stroke:#373535;stroke-width:1.53999996;stroke-linecap:round;stroke-linejoin:round;stroke-miterlimit:4;stroke-dasharray:none;stroke-opacity:1" id="path4220" />
			</g>
			<g id="g4222" transform="translate(125.5257,234.2328)">
				<path d="M 0,0 16.662,-7.073" style="fill:none;stroke:#373535;stroke-width:1.53999996;stroke-linecap:round;stroke-linejoin:round;stroke-miterlimit:4;stroke-dasharray:none;stroke-opacity:1" id="path4224" />
			</g>
			<g id="g4226" transform="translate(163.1111,226.3992)">
				<path d="M 0,0 11.326,-4.808" style="fill:none;stroke:#373535;stroke-width:1.53999996;stroke-linecap:round;stroke-linejoin:round;stroke-miterlimit:4;stroke-dasharray:none;stroke-opacity:1" id="path4228" />
			</g>
			<g id="g4230" transform="translate(163.0614,235.4949)">
				<path d="M 0,0 37.835,-16.06" style="fill:none;stroke:#373535;stroke-width:1.53999996;stroke-linecap:round;stroke-linejoin:round;stroke-miterlimit:4;stroke-dasharray:none;stroke-opacity:1" id="path4232" />
			</g>
			<g id="g4234" transform="translate(171.8232,212.9074)">
				<path d="M 0,0 22.287,-9.46" style="fill:none;stroke:#373535;stroke-width:1.53999996;stroke-linecap:round;stroke-linejoin:round;stroke-miterlimit:4;stroke-dasharray:none;stroke-opacity:1" id="path4236" />
			</g>
			<g id="g4238" transform="translate(207.3764,213.3705)">
				<path d="M 0,0 19.049,-8.086" style="fill:none;stroke:#373535;stroke-width:1.53999996;stroke-linecap:round;stroke-linejoin:round;stroke-miterlimit:4;stroke-dasharray:none;stroke-opacity:1" id="path4240" />
			</g>
			<g id="g4242" transform="translate(216.5804,256.3788)">
				<path d="M 0,0 11.587,-27.296 -104.002,-76.361 -115.589,-49.065 0,0 Z" style="fill:#93563a;fill-opacity:1;fill-rule:nonzero;stroke:none" id="path4244" />
			</g>
			<g id="g4246" transform="translate(216.5804,256.3788)">
				<path d="m 0,0 5.455,-12.852 -115.588,-49.065 -5.456,12.852 L 0,0 Z" style="fill:#bf977e;fill-opacity:1;fill-rule:nonzero;stroke:none" id="path4248" />
			</g>
			<g id="g4250" transform="translate(220.7294,263.2938)">
				<path d="M 0,0 11.587,-27.296 -104.002,-76.361 -115.589,-49.065 0,0 Z" style="fill:none;stroke:#373535;stroke-width:4.0999999;stroke-linecap:round;stroke-linejoin:round;stroke-miterlimit:4;stroke-dasharray:none;stroke-opacity:1" id="path4252" />
			</g>
			<g id="g4254" transform="translate(223.4671,254.1093)">
				<path d="M 0,0 -30.33,-12.874" style="fill:none;stroke:#373535;stroke-width:1.53999996;stroke-linecap:round;stroke-linejoin:round;stroke-miterlimit:4;stroke-dasharray:none;stroke-opacity:1" id="path4256" />
			</g>
			<g id="g4258" transform="translate(221.6734,258.3351)">
				<path d="M 0,0 -12.425,-5.274" style="fill:none;stroke:#373535;stroke-width:1.53999996;stroke-linecap:round;stroke-linejoin:round;stroke-miterlimit:4;stroke-dasharray:none;stroke-opacity:1" id="path4260" />
			</g>
			<g id="g4262" transform="translate(220.0353,246.8919)">
				<path d="M 0,0 5.504,2.336" style="fill:none;stroke:#373535;stroke-width:1.53999996;stroke-linecap:round;stroke-linejoin:round;stroke-miterlimit:4;stroke-dasharray:none;stroke-opacity:1" id="path4264" />
			</g>
			<g id="g4266" transform="translate(134.3814,208.8605)">
				<path d="M 0,0 -23.2,-9.848" style="fill:none;stroke:#373535;stroke-width:1.53999996;stroke-linecap:round;stroke-linejoin:round;stroke-miterlimit:4;stroke-dasharray:none;stroke-opacity:1" id="path4268" />
			</g>
			<g id="g4270" transform="translate(124.9932,196.7549)">
				<path d="M 0,0 -10.891,-4.623" style="fill:none;stroke:#373535;stroke-width:1.53999996;stroke-linecap:round;stroke-linejoin:round;stroke-miterlimit:4;stroke-dasharray:none;stroke-opacity:1" id="path4272" />
			</g>
			<g id="g4274" transform="translate(209.3432,234.2328)">
				<path d="M 0,0 -16.662,-7.073" style="fill:none;stroke:#373535;stroke-width:1.53999996;stroke-linecap:round;stroke-linejoin:round;stroke-miterlimit:4;stroke-dasharray:none;stroke-opacity:1" id="path4276" />
			</g>
			<g id="g4278" transform="translate(171.7578,226.3992)">
				<path d="M 0,0 -11.326,-4.808" style="fill:none;stroke:#373535;stroke-width:1.53999996;stroke-linecap:round;stroke-linejoin:round;stroke-miterlimit:4;stroke-dasharray:none;stroke-opacity:1" id="path4280" />
			</g>
			<g id="g4282" transform="translate(171.8075,235.4949)">
				<path d="M 0,0 -37.835,-16.06" style="fill:none;stroke:#373535;stroke-width:1.53999996;stroke-linecap:round;stroke-linejoin:round;stroke-miterlimit:4;stroke-dasharray:none;stroke-opacity:1" id="path4284" />
			</g>
			<g id="g4286" transform="translate(163.0457,212.9074)">
				<path d="M 0,0 -22.287,-9.46" style="fill:none;stroke:#373535;stroke-width:1.53999996;stroke-linecap:round;stroke-linejoin:round;stroke-miterlimit:4;stroke-dasharray:none;stroke-opacity:1" id="path4288" />
			</g>
			<g id="g4290" transform="translate(127.4925,213.3705)">
				<path d="M 0,0 -19.049,-8.086" style="fill:none;stroke:#373535;stroke-width:1.53999996;stroke-linecap:round;stroke-linejoin:round;stroke-miterlimit:4;stroke-dasharray:none;stroke-opacity:1" id="path4292" />
			</g>
			<g id="g4294" transform="translate(69.7015,212.9305)">
				<path d="M 0,0 -60.53,0" style="fill:none;stroke:#373535;stroke-width:1.95200002;stroke-linecap:round;stroke-linejoin:round;stroke-miterlimit:4;stroke-dasharray:none;stroke-opacity:1" id="path4296" />
			</g>
			<g id="g4298" transform="translate(74.2517,239.0999)">
				<path d="M 0,0 -65.479,8.76" style="fill:none;stroke:#93563a;stroke-width:2.92700005;stroke-linecap:round;stroke-linejoin:round;stroke-miterlimit:4;stroke-dasharray:none;stroke-opacity:1" id="path4300" />
			</g>
			<g id="g4302" transform="translate(78.1658,264.7776)">
				<path d="M 0,0 -69.156,18.504" style="fill:none;stroke:#d3373b;stroke-width:3.90300012;stroke-linecap:round;stroke-linejoin:round;stroke-miterlimit:4;stroke-dasharray:none;stroke-opacity:1" id="path4304" />
			</g>
			<g id="g4306">
				<g id="g4308" clip-path="url(#clipPath4310)">
					<g id="g4314" transform="translate(81.3075,289.7047)">
						<path d="M 0,0 -71.288,29.749" style="fill:none;stroke:#edcb5b;stroke-width:5.85500002;stroke-linecap:round;stroke-linejoin:round;stroke-miterlimit:4;stroke-dasharray:none;stroke-opacity:1" id="path4316" />
					</g>
				</g>
			</g>
			<g id="g4318" transform="translate(256.0087,212.9305)">
				<path d="M 0,0 60.53,0" style="fill:none;stroke:#373535;stroke-width:1.95200002;stroke-linecap:round;stroke-linejoin:round;stroke-miterlimit:4;stroke-dasharray:none;stroke-opacity:1" id="path4320" />
			</g>
			<g id="g4322" transform="translate(251.4584,239.0999)">
				<path d="M 0,0 65.479,8.76" style="fill:none;stroke:#93563a;stroke-width:2.92700005;stroke-linecap:round;stroke-linejoin:round;stroke-miterlimit:4;stroke-dasharray:none;stroke-opacity:1" id="path4324" />
			</g>
			<g id="g4326" transform="translate(247.5444,264.7776)">
				<path d="M 0,0 69.156,18.504" style="fill:none;stroke:#d3373b;stroke-width:3.90300012;stroke-linecap:round;stroke-linejoin:round;stroke-miterlimit:4;stroke-dasharray:none;stroke-opacity:1" id="path4328" />
			</g>
			<g id="g4330">
				<g id="g4332" clip-path="url(#clipPath4334)">
					<g id="g4338" transform="translate(244.4026,289.7047)">
						<path d="M 0,0 71.288,29.749" style="fill:none;stroke:#edcb5b;stroke-width:5.85500002;stroke-linecap:round;stroke-linejoin:round;stroke-miterlimit:4;stroke-dasharray:none;stroke-opacity:1" id="path4340" />
					</g>
				</g>
			</g>
			<g id="g4342" transform="translate(6.2439,70.285)">
				<path d="M 0,0 17.322,-23.935 0,-50.187 l 75.509,0 L 75.509,0 0,0 Z" style="fill:#409987;fill-opacity:1;fill-rule:nonzero;stroke:none" id="path4344" />
			</g>
			<g id="g4346" transform="translate(60.678,54.8952)">
				<path d="m 0,0 21.075,15.431 0,-42.862 -11.213,0 L 0,0 Z" style="fill:#007266;fill-opacity:1;fill-rule:nonzero;stroke:none" id="path4348" />
			</g>
			<g id="g4350" transform="translate(244.356,70.285)">
				<path d="m 0,0 0,-50.187 75.509,0 L 58.184,-23.935 75.509,0 0,0 Z" style="fill:#409987;fill-opacity:1;fill-rule:nonzero;stroke:none" id="path4352" />
			</g>
			<g id="g4354" transform="translate(265.431,54.8952)">
				<path d="m 0,0 -21.075,15.431 0,-42.862 11.215,0 L 0,0 Z" style="fill:#007266;fill-opacity:1;fill-rule:nonzero;stroke:none" id="path4356" />
			</g>
			<g id="g4358" transform="translate(60.531,54.895)">
				<path d="m 0,0 12.764,-47.146 179.519,0 L 205.046,0 0,0 Z" style="fill:#a7cdbe;fill-opacity:1;fill-rule:nonzero;stroke:none" id="path4360" />
			</g>
			<g id="g4362">
				<g id="g4364" clip-path="url(#clipPath4366)">
					<g id="g4370" transform="translate(111.7997,37.4845)">
						<path d="m 0,0 c 0.378,0.081 0.568,0.317 0.568,0.708 l 0,1.331 -1.719,0 -2.302,0 C -3.587,2.04 -3.704,2.036 -3.804,2.028 -3.902,2.021 -3.991,2.002 -4.071,1.971 -4.151,1.941 -4.223,1.892 -4.286,1.824 -4.351,1.756 -4.413,1.666 -4.473,1.552 L -9.33,-7.531 c -0.128,-0.242 -0.249,-0.495 -0.363,-0.76 -0.114,-0.268 -0.224,-0.537 -0.329,-0.806 -0.107,0.267 -0.214,0.53 -0.323,0.789 -0.109,0.259 -0.228,0.511 -0.357,0.754 l -4.902,9.106 c -0.061,0.114 -0.125,0.204 -0.193,0.272 -0.068,0.068 -0.141,0.117 -0.221,0.147 -0.079,0.03 -0.168,0.049 -0.267,0.057 -0.102,0.008 -0.219,0.011 -0.351,0.011 l -2.302,0 -1.719,0 0,-1.332 c 0,-0.391 0.189,-0.627 0.568,-0.708 0.033,-0.006 0.081,-0.014 0.142,-0.026 0.062,-0.011 0.175,-0.032 0.338,-0.061 0.164,-0.029 0.387,-0.069 0.671,-0.119 l 0,-11.912 c -0.284,-0.05 -0.507,-0.089 -0.671,-0.119 -0.163,-0.029 -0.276,-0.049 -0.338,-0.06 -0.062,-0.011 -0.109,-0.019 -0.142,-0.025 -0.379,-0.081 -0.568,-0.317 -0.568,-0.709 l 0,-1.332 1.719,0 2.687,0 2.046,0 0,1.332 c 10e-4,0.392 -0.189,0.628 -0.567,0.709 -0.044,0.008 -0.537,0.076 -1.479,0.206 l 0,8.35 c 0,0.205 -0.005,0.426 -0.017,0.664 -0.011,0.239 -0.032,0.483 -0.062,0.732 l 5.026,-9.34 c 0.114,-0.212 0.261,-0.377 0.443,-0.494 0.181,-0.117 0.393,-0.176 0.635,-0.176 l 0.42,0 c 0.242,0 0.454,0.059 0.635,0.176 0.182,0.117 0.329,0.282 0.443,0.494 l 4.958,9.306 c -0.023,-0.242 -0.04,-0.48 -0.051,-0.715 -0.011,-0.234 -0.017,-0.45 -0.017,-0.647 l 0,-8.35 c -0.941,-0.13 -1.434,-0.198 -1.479,-0.206 -0.379,-0.081 -0.568,-0.317 -0.568,-0.709 l 0,-1.332 2.047,0 2.687,0 1.719,0 0,1.332 c 0,0.392 -0.189,0.628 -0.568,0.709 -0.033,0.006 -0.081,0.014 -0.143,0.026 -0.061,0.011 -0.174,0.031 -0.337,0.061 -0.164,0.029 -0.388,0.069 -0.671,0.119 l 0,11.912 c 0.283,0.049 0.507,0.089 0.671,0.118 0.163,0.03 0.276,0.05 0.338,0.061 C -0.081,-0.014 -0.033,-0.006 0,0 m 4.329,2.039 -1.719,0 0,-1.332 C 2.61,0.316 2.799,0.08 3.178,-0.001 3.211,-0.007 3.259,-0.016 3.32,-0.027 3.382,-0.038 3.494,-0.058 3.658,-0.088 3.822,-0.116 4.045,-0.156 4.329,-0.205 l 0,-11.914 C 4.045,-12.169 3.822,-12.208 3.658,-12.238 3.494,-12.267 3.382,-12.287 3.32,-12.298 3.259,-12.308 3.211,-12.317 3.178,-12.323 2.799,-12.404 2.61,-12.64 2.61,-13.032 l 0,-1.332 1.719,0 10.355,0 0,1.59 -0.01,0.848 0.01,1.885 -0.097,0 -0.275,0 -0.934,0 c -0.292,0 -0.468,-0.141 -0.529,-0.423 -0.037,-0.177 -0.092,-0.664 -0.17,-1.462 l -5.277,0 0,4.641 5.551,0 0,2.347 -5.551,0 0,4.551 5.277,0 c 0.084,-0.795 0.139,-1.282 0.17,-1.458 0.061,-0.283 0.237,-0.424 0.529,-0.424 l 0.934,0 0.275,0 0.097,0 0,1.885 0,0.847 0,1.576 -10.355,0 z M 30.881,-12.32 c -0.033,0.006 -0.091,0.014 -0.173,0.026 -0.081,0.011 -0.214,0.031 -0.398,0.061 -0.184,0.029 -0.418,0.069 -0.701,0.119 l -2.581,3.809 c -0.28,0.408 -0.613,0.721 -0.999,0.941 0.576,0.182 1.088,0.423 1.537,0.726 0.451,0.302 0.829,0.653 1.135,1.054 0.306,0.401 0.54,0.847 0.703,1.339 0.162,0.492 0.244,1.014 0.244,1.566 0,0.696 -0.119,1.333 -0.357,1.912 -0.239,0.579 -0.613,1.075 -1.123,1.491 -0.511,0.416 -1.165,0.739 -1.963,0.97 -0.798,0.23 -1.757,0.345 -2.877,0.345 l -4.842,0 -1.719,0 0,-1.332 c 0,-0.391 0.189,-0.627 0.568,-0.708 0.033,-0.006 0.08,-0.015 0.142,-0.026 0.062,-0.011 0.175,-0.032 0.338,-0.061 0.164,-0.029 0.387,-0.069 0.671,-0.119 l 0,-11.912 c -0.284,-0.05 -0.507,-0.089 -0.671,-0.119 -0.163,-0.029 -0.276,-0.049 -0.338,-0.06 -0.062,-0.011 -0.109,-0.019 -0.142,-0.025 -0.379,-0.081 -0.568,-0.317 -0.568,-0.709 l 0,-1.332 1.719,0 3.05,0 1.717,0 0,1.332 c 0,0.392 -0.189,0.628 -0.568,0.709 -0.033,0.006 -0.081,0.014 -0.142,0.026 -0.062,0.011 -0.175,0.031 -0.338,0.061 -0.163,0.029 -0.386,0.069 -0.669,0.119 l 0,4.163 1.145,0 c 0.302,0 0.531,-0.042 0.687,-0.125 0.155,-0.083 0.297,-0.223 0.425,-0.42 l 3.451,-5.253 c 0.128,-0.196 0.285,-0.347 0.47,-0.453 0.186,-0.106 0.411,-0.159 0.675,-0.159 l 1.342,0 1.403,0 0.316,0 0,1.332 c -10e-4,0.392 -0.19,0.628 -0.569,0.709 l 0,0.003 z m -6.094,6.77 c -0.428,-0.144 -0.93,-0.216 -1.504,-0.216 l -1.747,0 0,5.447 1.792,0 c 1.127,0 1.965,-0.223 2.514,-0.669 0.549,-0.447 0.823,-1.086 0.823,-1.918 0,-0.416 -0.068,-0.798 -0.204,-1.146 C 26.324,-4.4 26.118,-4.701 25.842,-4.954 25.566,-5.208 25.214,-5.406 24.787,-5.55 m 23.912,-6.77 c -0.035,0.006 -0.096,0.014 -0.183,0.025 -0.088,0.011 -0.224,0.03 -0.409,0.058 -0.184,0.028 -0.409,0.065 -0.675,0.111 l -4.036,5.442 c -0.189,0.257 -0.384,0.469 -0.584,0.635 -0.201,0.167 -0.426,0.295 -0.675,0.386 0.181,0.09 0.351,0.207 0.511,0.351 0.158,0.143 0.324,0.321 0.499,0.533 l 3.712,4.584 c 0.266,0.046 0.491,0.083 0.675,0.111 0.184,0.027 0.32,0.047 0.408,0.058 0.088,0.01 0.149,0.019 0.183,0.025 0.379,0.081 0.568,0.317 0.568,0.708 l 0,1.332 -1.719,-0.001 -0.568,0.001 -3.762,0 0,-1.332 c 0,-0.391 0.189,-0.627 0.568,-0.708 0.034,-0.006 0.081,-0.015 0.143,-0.026 0.061,-0.011 0.113,-0.02 0.155,-0.028 l -3.381,-4.281 c -0.136,-0.174 -0.299,-0.301 -0.488,-0.38 -0.189,-0.08 -0.427,-0.119 -0.715,-0.119 l -0.714,0 0,4.639 c 0.283,0.05 0.505,0.089 0.668,0.119 0.163,0.029 0.275,0.049 0.338,0.061 0.062,0.011 0.11,0.019 0.142,0.025 0.379,0.081 0.568,0.318 0.568,0.709 l 0,1.321 -1.719,0 -3.048,0 -1.718,0 0,-1.331 c 0,-0.391 0.189,-0.627 0.567,-0.708 0.034,-0.006 0.081,-0.014 0.143,-0.026 0.062,-0.011 0.174,-0.031 0.338,-0.061 0.163,-0.029 0.387,-0.068 0.67,-0.118 l 0,-11.914 c -0.283,-0.05 -0.507,-0.089 -0.67,-0.119 -0.164,-0.029 -0.276,-0.049 -0.338,-0.06 -0.062,-0.012 -0.11,-0.02 -0.143,-0.026 -0.378,-0.081 -0.567,-0.317 -0.567,-0.708 l 0,-1.332 1.718,0 3.051,0 1.716,0 0,1.332 c 0,0.391 -0.189,0.627 -0.568,0.708 -0.033,0.006 -0.081,0.014 -0.142,0.026 -0.062,0.011 -0.174,0.031 -0.338,0.06 -0.163,0.03 -0.386,0.069 -0.668,0.119 l 0,4.971 0.964,0 c 0.347,0 0.616,-0.044 0.805,-0.131 0.189,-0.087 0.359,-0.229 0.511,-0.426 l 3.468,-4.531 c -0.119,-0.022 -0.222,-0.04 -0.308,-0.056 -0.086,-0.014 -0.145,-0.025 -0.179,-0.031 -0.378,-0.081 -0.567,-0.317 -0.567,-0.709 l 0,-1.332 3.485,0 0.277,0 0.88,0 1.543,0 0.175,0 0,1.332 c 0,0.392 -0.189,0.628 -0.567,0.709 l 0,0.003 z m 12.944,4.83 c -0.216,0.476 -0.501,0.879 -0.857,1.208 -0.356,0.33 -0.76,0.602 -1.213,0.817 -0.452,0.215 -0.915,0.404 -1.39,0.568 -0.473,0.162 -0.936,0.315 -1.39,0.459 -0.454,0.144 -0.858,0.306 -1.214,0.488 -0.355,0.182 -0.641,0.401 -0.856,0.658 -0.216,0.257 -0.324,0.579 -0.324,0.965 0,0.302 0.053,0.58 0.159,0.834 0.106,0.253 0.267,0.471 0.482,0.652 0.215,0.181 0.48,0.323 0.794,0.426 0.314,0.101 0.683,0.152 1.107,0.153 1.185,0 2.064,-0.128 2.637,-0.383 0.098,-1.019 0.165,-1.631 0.201,-1.837 0.061,-0.282 0.237,-0.423 0.529,-0.423 l 0.934,0 0.275,0 0.097,0 0,4.196 c -1.527,0.62 -3.096,0.93 -4.708,0.93 -0.854,0 -1.614,-0.132 -2.28,-0.397 C 53.961,1.559 53.4,1.208 52.942,0.77 52.485,0.331 52.137,-0.171 51.899,-0.739 c -0.238,-0.567 -0.357,-1.149 -0.357,-1.747 0,-0.749 0.108,-1.379 0.323,-1.889 0.215,-0.511 0.501,-0.936 0.856,-1.277 0.356,-0.34 0.76,-0.616 1.213,-0.828 0.454,-0.212 0.915,-0.393 1.384,-0.545 0.464,-0.149 0.926,-0.289 1.384,-0.419 0.454,-0.129 0.859,-0.286 1.214,-0.471 0.356,-0.186 0.641,-0.414 0.857,-0.687 0.217,-0.272 0.325,-0.624 0.325,-1.055 0,-0.771 -0.239,-1.363 -0.715,-1.776 -0.477,-0.412 -1.15,-0.618 -2.02,-0.618 -1.412,0 -2.445,0.1 -3.098,0.301 -0.101,1.042 -0.169,1.667 -0.205,1.873 -0.061,0.282 -0.237,0.423 -0.529,0.423 l -0.934,0 -0.275,0 -0.097,0 0,-3.817 0,-0.401 c 1.682,-0.577 3.252,-0.865 4.71,-0.865 0.129,-0.005 0.242,-0.008 0.338,-0.008 0.907,0 1.713,0.138 2.416,0.414 0.704,0.276 1.299,0.654 1.786,1.134 0.488,0.479 0.858,1.043 1.111,1.69 0.254,0.647 0.38,1.341 0.38,2.082 0,0.68 -0.107,1.259 -0.323,1.735 m 15.025,6.411 C 76.419,-0.436 76.033,0.116 75.511,0.577 74.99,1.038 74.328,1.397 73.526,1.654 72.723,1.911 71.772,2.04 70.674,2.04 l -5.077,0 -1.719,-10e-4 0,-1.332 c 0,-0.391 0.189,-0.627 0.568,-0.708 0.033,-0.006 0.081,-0.014 0.142,-0.026 0.062,-0.011 0.175,-0.032 0.338,-0.061 0.164,-0.029 0.387,-0.069 0.671,-0.119 l 0,-11.912 c -0.284,-0.05 -0.507,-0.089 -0.671,-0.119 -0.163,-0.029 -0.276,-0.049 -0.338,-0.06 -0.062,-0.011 -0.109,-0.019 -0.142,-0.025 -0.379,-0.081 -0.568,-0.317 -0.568,-0.709 l 0,-1.332 1.719,0 3.05,0 1.719,0 0,1.332 c 0.001,0.392 -0.189,0.628 -0.568,0.709 -0.033,0.006 -0.081,0.014 -0.143,0.026 -0.061,0.011 -0.174,0.031 -0.338,0.061 -0.163,0.029 -0.387,0.069 -0.67,0.119 l 0,3.528 2.028,0 c 1.068,0 1.999,0.132 2.794,0.397 0.795,0.264 1.456,0.634 1.986,1.111 0.529,0.476 0.926,1.045 1.19,1.707 0.265,0.662 0.397,1.39 0.397,2.184 0,0.764 -0.125,1.468 -0.374,2.111 m -2.881,-3.365 c -0.136,-0.374 -0.341,-0.692 -0.613,-0.953 -0.273,-0.261 -0.618,-0.461 -1.034,-0.601 -0.416,-0.14 -0.905,-0.21 -1.466,-0.21 l -2.027,0 0,5.889 2.028,0 c 0.56,0 1.048,-0.066 1.465,-0.198 0.417,-0.133 0.761,-0.324 1.034,-0.573 0.272,-0.25 0.477,-0.552 0.613,-0.908 0.137,-0.356 0.205,-0.753 0.205,-1.192 0,-0.461 -0.068,-0.879 -0.205,-1.254 m 15.856,-5.996 c -0.291,0 -0.467,-0.141 -0.527,-0.423 -0.015,-0.08 -0.046,-0.408 -0.094,-0.984 l -5.276,0 0,11.64 c 0.282,0.05 0.505,0.09 0.668,0.119 0.162,0.029 0.275,0.05 0.337,0.061 0.063,0.011 0.11,0.02 0.142,0.026 0.379,0.081 0.568,0.317 0.568,0.708 l 0,1.332 -1.718,0 -3.048,0 -1.718,0 0,-1.332 c 0,-0.391 0.189,-0.627 0.567,-0.708 0.034,-0.006 0.081,-0.014 0.143,-0.026 0.062,-0.011 0.174,-0.032 0.338,-0.061 0.163,-0.028 0.387,-0.067 0.67,-0.117 l 0,-11.914 c -0.283,-0.05 -0.507,-0.089 -0.67,-0.119 -0.164,-0.029 -0.276,-0.049 -0.338,-0.06 -0.062,-0.011 -0.11,-0.019 -0.143,-0.025 -0.378,-0.081 -0.567,-0.317 -0.567,-0.709 l 0,-1.332 1.718,0 9.544,0 0.067,0 0.542,0 0,1.193 0,0.436 0,2.294 -1.205,0.001 z m 20.379,-2.183 c -0.116,0.047 -0.53,0.221 -1.244,0.522 l -5.555,14.14 -3.119,0 -5.555,-14.14 c -0.71,-0.299 -1.124,-0.473 -1.244,-0.522 -0.3,-0.125 -0.45,-0.319 -0.45,-0.582 l 0,-1.159 0.805,0 1.777,0 0.379,0 0.215,0 2.366,0 0,1.159 c 0,0.263 -0.15,0.457 -0.45,0.582 -0.053,0.021 -0.204,0.085 -0.453,0.19 l 0.052,0.143 0.851,2.328 6.534,0 0.815,-2.233 0.087,-0.239 c -0.247,-0.104 -0.398,-0.167 -0.453,-0.189 -0.3,-0.125 -0.45,-0.319 -0.45,-0.582 l 0,-1.159 2.377,0 0.205,0 0.379,0 1.776,0 0.806,0 0,1.159 c -0.001,0.263 -0.151,0.457 -0.451,0.582 m -8.977,9.887 c 0.099,0.251 0.199,0.543 0.301,0.874 0.101,0.329 0.205,0.688 0.312,1.077 0.106,-0.386 0.213,-0.743 0.323,-1.072 0.108,-0.324 0.208,-0.61 0.301,-0.856 l 1.864,-5.095 -4.965,0 1.864,5.072 z m 21.798,-4.754 c -0.216,0.476 -0.501,0.879 -0.857,1.208 -0.356,0.33 -0.76,0.602 -1.214,0.817 -0.451,0.215 -0.915,0.404 -1.389,0.568 -0.473,0.162 -0.936,0.315 -1.39,0.459 -0.454,0.144 -0.858,0.306 -1.214,0.488 -0.356,0.182 -0.641,0.401 -0.857,0.658 -0.215,0.257 -0.323,0.579 -0.323,0.965 0,0.302 0.053,0.58 0.159,0.834 0.106,0.253 0.267,0.471 0.482,0.652 0.215,0.181 0.48,0.323 0.794,0.426 0.314,0.101 0.683,0.152 1.106,0.153 1.186,0 2.065,-0.128 2.638,-0.383 0.098,-1.019 0.165,-1.631 0.201,-1.837 0.06,-0.282 0.237,-0.423 0.529,-0.423 l 0.933,0 0.276,0 0.097,0 0,4.196 c -1.527,0.62 -3.096,0.93 -4.708,0.93 -0.854,0 -1.614,-0.132 -2.28,-0.397 -0.665,-0.265 -1.227,-0.616 -1.684,-1.054 -0.457,-0.439 -0.805,-0.941 -1.043,-1.509 -0.238,-0.567 -0.357,-1.149 -0.357,-1.747 0,-0.749 0.107,-1.379 0.323,-1.889 0.215,-0.511 0.501,-0.936 0.856,-1.277 0.356,-0.34 0.76,-0.616 1.213,-0.828 0.454,-0.212 0.915,-0.393 1.384,-0.545 0.464,-0.149 0.925,-0.289 1.384,-0.419 0.454,-0.129 0.858,-0.286 1.214,-0.471 0.356,-0.186 0.641,-0.414 0.857,-0.687 0.217,-0.272 0.324,-0.624 0.324,-1.055 0,-0.771 -0.238,-1.363 -0.714,-1.776 -0.477,-0.412 -1.15,-0.618 -2.02,-0.618 -1.412,0 -2.445,0.1 -3.098,0.301 -0.101,1.042 -0.169,1.667 -0.205,1.873 -0.061,0.282 -0.237,0.423 -0.529,0.423 l -0.934,0 -0.275,0 -0.097,0 0,-3.817 0,-0.401 c 1.682,-0.577 3.252,-0.865 4.71,-0.865 0.129,-0.005 0.242,-0.008 0.337,-0.008 0.908,0 1.714,0.138 2.417,0.414 0.704,0.276 1.299,0.654 1.786,1.134 0.488,0.479 0.858,1.043 1.111,1.69 0.254,0.647 0.38,1.341 0.38,2.082 0,0.68 -0.108,1.259 -0.323,1.735" style="fill:#373535;fill-opacity:1;fill-rule:nonzero;stroke:none" id="path4372" />
					</g>
					<g id="g4374" transform="translate(7.117,164.0062)">
						<path d="m 0,0 7.479,0 0,-22.394 c 0,0 1.701,-3.401 4.536,1.134 C 14.849,-16.724 18.818,0 18.818,0 l 5.953,0 -7.937,-30.331 14.173,-36.567 -6.803,0 -13.323,28.063 c 0,0 -2.551,1.985 -2.835,-1.417 C 7.763,-43.654 6.912,-66.898 6.912,-66.898 L 0,-66.898 0,0 Z" style="fill:#373535;fill-opacity:1;fill-rule:nonzero;stroke:none" id="path4376" />
					</g>
					<g id="g4378" transform="translate(197.4234,164.0062)">
						<path d="m 0,0 7.479,0 0,-22.394 c 0,0 1.701,-3.401 4.536,1.134 C 14.849,-16.724 18.818,0 18.818,0 l 5.953,0 -7.937,-30.331 14.173,-36.567 -6.803,0 -13.323,28.063 c 0,0 -2.551,1.985 -2.835,-1.417 C 7.763,-43.654 6.912,-66.898 6.912,-66.898 L 0,-66.898 0,0 Z" style="fill:#373535;fill-opacity:1;fill-rule:nonzero;stroke:none" id="path4380" />
					</g>
					<g id="g4382" transform="translate(62.2184,146.1479)">
						<path d="m 0,0 0,8.787 7.087,0 L 7.937,0 c 0,0 8.787,-5.953 13.606,8.787 C 26.362,23.528 4.252,27.78 -0.85,19.843 l -5.386,5.102 c 0,0 7.37,9.052 20.409,5.943 C 27.213,27.78 33.165,13.606 29.197,5.669 25.228,-2.268 20.693,-7.937 20.126,-8.504 c -0.567,-0.567 17.858,-54.992 21.827,-58.394 3.968,-3.401 9.638,-4.535 13.039,0 3.402,4.536 2.268,5.953 3.118,5.953 0.851,0 6.803,0.284 6.803,-0.283 0,-0.567 0.851,-10.205 -5.385,-13.04 -6.237,-2.834 -17.859,-8.22 -23.528,1.985 -5.669,10.204 -24.094,62.929 -24.094,62.929 0,0 -3.969,2.834 -4.536,-1.701 -0.567,-4.536 0.284,-36.851 0.284,-36.851 L 1.701,-47.339 0,-13.039 c 0,0 -1.493,4.702 -5.386,2.834 -6.345,-3.044 1.134,-5.185 1.134,-7.086 0,-1.134 -1.417,-7.271 -1.417,-6.666 0,0.604 -9.322,2.771 -9.889,8.44 -0.567,5.67 -0.316,10.131 6.487,12.682 C -2.268,-0.283 0,0 0,0" style="fill:#373535;fill-opacity:1;fill-rule:nonzero;stroke:none" id="path4384" />
					</g>
					<g id="g4386" transform="translate(117.2105,161.1715)">
						<path d="m 0,0 c -0.283,-1.417 -0.85,-63.213 0,-63.213 0.85,0 7.654,-0.85 7.087,0 C 6.52,-62.362 5.669,1.701 5.669,1.701 L 0,0 Z" style="fill:#373535;fill-opacity:1;fill-rule:nonzero;stroke:none" id="path4388" />
					</g>
					<g id="g4390" transform="translate(145.2735,161.7385)">
						<path d="m 0,0 c 0,0 -0.567,-63.685 0,-64.157 0.567,-0.473 7.37,-0.473 7.37,-0.473 0,0 0.284,37.417 1.134,35.433 0.85,-1.984 18.425,-34.583 18.425,-35.433 0,-0.85 4.536,0 4.536,0 l 0,66.898 -7.937,-1.134 0.283,-36.567 c 0,0 -17.575,37.134 -17.575,36.567 C 6.236,0.567 0,0 0,0" style="fill:#373535;fill-opacity:1;fill-rule:nonzero;stroke:none" id="path4392" />
					</g>
					<g id="g4394" transform="translate(245.3365,162.0219)">
						<path d="m 0,0 c 0,-0.425 0.85,-6.52 0.85,-6.52 l 17.575,-1.134 1.276,-19.559 -12.331,-0.708 0.425,-7.087 11.906,-1.275 c 0,0 -0.567,-19.134 -0.567,-19.56 0,-0.425 -19.134,-1.984 -19.134,-1.984 0,0 -0.425,-7.464 0,-7.464 l 26.362,0 c -0.425,0 0.851,66.141 0.851,66.141 L 0,0 Z" style="fill:#373535;fill-opacity:1;fill-rule:nonzero;stroke:none" id="path4396" />
					</g>
					<g id="g4398" transform="translate(292.5333,162.8723)">
						<path d="m 0,0 c 0,0 7.795,0.85 7.512,0 -0.284,-0.85 0.85,-58.11 0.85,-58.11 l 18.425,-0.992 c 0,0 0.851,-7.04 0.426,-7.04 -0.426,0 -25.937,-0.33 -25.937,-0.33 L 0,0 Z" style="fill:#373535;fill-opacity:1;fill-rule:nonzero;stroke:none" id="path4400" />
					</g>
				</g>
			</g>
		</g>
	</svg>
