<svg xmlns="http://www.w3.org/2000/svg" width="407.5" height="546.25" viewBox="0 0 407.5 546.25"><defs><clipPath id="a"><path d="M0 437h326V0H0v437z"/></clipPath><clipPath id="b"><path d="M0 437h326V0H0v437z"/></clipPath><clipPath id="c"><path d="M0 437h326V0H0v437z"/></clipPath><clipPath id="d"><path d="M0 437h326V0H0v437z"/></clipPath></defs><g clip-path="url(#a)" transform="matrix(1.25 0 0 -1.25 0 546.25)"><path d="M270.934 329.056c27.024 0 48.93 21.907 48.93 48.931 0 27.024-21.906 48.932-48.93 48.932s-48.931-21.908-48.931-48.932 21.907-48.931 48.93-48.931" fill="#409987"/><path d="M239.392 377.56l-.732.308-3.268 8.32h-1.836l-3.268-8.32a82.505 82.505 0 0 0-.732-.308c-.176-.074-.265-.188-.265-.342v-.682h3.261v.682c0 .154-.088.268-.265.342l-.266.112.031.084.5 1.37h3.845l.48-1.314.051-.14a23.033 23.033 0 0 0-.267-.112c-.177-.074-.265-.188-.265-.342v-.682h3.261v.682c0 .154-.088.27-.265.342m-5.282 5.818c.058.147.117.32.177.514.06.193.121.405.184.634a12.312 12.312 0 0 1 .367-1.135l1.097-2.998h-2.92l1.095 2.985zm15.106 2.81h-2.865v-.784c0-.23.111-.37.334-.417l.1-.016.227-.035c.106-.018.242-.04.41-.07v-4.459c0-.369-.05-.703-.15-1a2.128 2.128 0 0 0-.435-.762 1.948 1.948 0 0 0-.694-.488 2.386 2.386 0 0 0-.932-.173c-.347 0-.658.058-.93.173a1.886 1.886 0 0 0-.692.491 2.185 2.185 0 0 0-.43.764c-.1.3-.15.632-.15 1.002v4.452c.165.03.301.052.407.07.106.017.182.03.228.035l.098.016c.223.047.335.186.335.417v.783H240.203v-.783c0-.23.11-.37.333-.417l.084-.016.2-.035.393-.07v-4.458c0-.575.093-1.106.277-1.593a3.63 3.63 0 0 1 .794-1.262 3.613 3.613 0 0 1 1.258-.827c.494-.198 1.05-.297 1.67-.297.618 0 1.174.1 1.668.297.494.198.915.474 1.262.827.346.354.612.775.797 1.262.184.487.277 1.018.277 1.593v4.458l.394.07a13.596 13.596 0 0 0 .283.051c.223.048.334.187.334.417v.783h-1.01zm7.17-4.813v-1.014c0-.094.033-.173.1-.237a.374.374 0 0 1 .273-.097h1.21v-1.756a4.456 4.456 0 0 0-.859-.304 4.52 4.52 0 0 0-1.058-.11c-.459 0-.882.08-1.269.237a2.817 2.817 0 0 0-1 .684 3.122 3.122 0 0 0-.656 1.1 4.394 4.394 0 0 0-.233 1.483c0 .517.073.984.22 1.403.147.42.356.777.628 1.075.271.3.6.528.984.688.385.161.816.241 1.292.24.86 0 1.62-.112 2.283-.336.055-.578.093-.925.114-1.043.036-.166.14-.249.312-.249H259.495l.001 2.47c-1.242.458-2.38.687-3.418.687h-.008c-.03 0-.058 0-.085-.002-.735-.009-1.399-.129-1.99-.358a4.491 4.491 0 0 1-1.578-1.015 4.484 4.484 0 0 1-1.004-1.563 5.452 5.452 0 0 1-.354-1.997c0-.716.121-1.377.364-1.982a4.65 4.65 0 0 1 1.01-1.562 4.625 4.625 0 0 1 1.536-1.02 5.043 5.043 0 0 1 1.942-.368c.396 0 .765.021 1.108.064.343.042.665.105.965.19a4.909 4.909 0 0 1 1.611.787v3.905h-3.209zm13.355 4.812h-2.864v-.783c0-.23.111-.37.334-.417l.098-.016c.046-.006.122-.018.228-.035.107-.018.243-.04.41-.07v-4.459c0-.369-.05-.703-.15-1a2.13 2.13 0 0 0-.435-.762 1.93 1.93 0 0 0-.694-.488 2.381 2.381 0 0 0-.93-.173c-.349 0-.659.058-.933.173a1.894 1.894 0 0 0-.69.491c-.188.211-.33.466-.43.764-.1.3-.15.632-.15 1.002v4.452c.165.03.301.052.407.07.106.017.182.03.228.035l.098.016c.223.047.334.186.334.417v.783h-3.873v-.783c0-.23.11-.37.333-.417l.084-.016.198-.035.395-.07v-4.458c0-.575.092-1.106.277-1.593.184-.487.45-.908.794-1.262a3.603 3.603 0 0 1 1.258-.827c.494-.198 1.05-.297 1.67-.297.617 0 1.174.1 1.668.297.494.198.914.474 1.261.827.347.354.613.775.797 1.262a4.45 4.45 0 0 1 .277 1.593v4.458a89.946 89.946 0 0 0 .678.121c.222.048.334.187.334.417v.783h-1.012zm8.254-5.607a2.17 2.17 0 0 1-.504.711 2.86 2.86 0 0 1-.714.481 7.967 7.967 0 0 1-.818.334c-.278.095-.55.186-.818.27-.267.085-.505.18-.714.287a1.587 1.587 0 0 0-.504.388.85.85 0 0 0-.19.567c0 .178.031.341.093.491.063.15.157.277.284.384.127.106.282.19.467.25.185.06.402.09.651.09.698 0 1.215-.075 1.552-.225.058-.6.097-.96.118-1.08.036-.167.14-.25.311-.25H277.978v2.47a7.298 7.298 0 0 1-2.77.546c-.503 0-.95-.078-1.342-.233a3.036 3.036 0 0 1-.99-.62 2.637 2.637 0 0 1-.824-1.915c0-.442.063-.812.19-1.113.127-.3.294-.55.503-.75.21-.2.448-.364.714-.488.267-.125.54-.232.814-.32.274-.089.545-.17.815-.248.267-.075.505-.168.714-.277.21-.109.377-.244.504-.404.128-.16.191-.367.191-.62 0-.455-.14-.803-.42-1.045-.28-.243-.677-.364-1.189-.364-.83 0-1.438.06-1.823.177-.059.613-.099.981-.12 1.102-.036.166-.14.25-.31.25H271.864V376.942c.99-.339 1.914-.509 2.771-.509.077-.003.143-.005.2-.005.533 0 1.007.081 1.421.244a3.08 3.08 0 0 1 1.051.667c.287.282.505.614.654.994.15.381.223.79.223 1.225 0 .401-.063.741-.19 1.021m9.077 5.607H279.261v-2.282h.769c.171 0 .275.083.311.248.013.078.036.265.066.56h1.971v-6.856l-.395-.07a19.56 19.56 0 0 1-.199-.036l-.084-.014c-.223-.048-.334-.187-.334-.417v-.784h3.815v.784c0 .23-.11.37-.333.417l-.084.015c-.036.007-.102.02-.198.036l-.393.07v6.855h1.964c.03-.296.052-.482.066-.56.036-.166.14-.248.311-.248H287.283v2.282h-.21zm10.31 0h-2.864v-.783c0-.23.111-.37.334-.417l.098-.016c.046-.006.122-.018.228-.035.107-.018.243-.04.41-.07v-4.459c0-.369-.05-.703-.15-1a2.13 2.13 0 0 0-.435-.762 1.93 1.93 0 0 0-.694-.488 2.381 2.381 0 0 0-.93-.173c-.349 0-.659.058-.933.173a1.894 1.894 0 0 0-.69.491c-.188.211-.33.466-.43.764-.1.3-.15.632-.15 1.002v4.452c.165.03.301.052.407.07.106.017.182.03.228.035l.098.016c.223.047.334.186.334.417v.783h-3.873v-.783c0-.23.11-.37.333-.417l.083-.016.2-.035.394-.07v-4.458c0-.575.092-1.106.277-1.593.184-.487.45-.908.794-1.262a3.603 3.603 0 0 1 1.258-.827c.494-.198 1.05-.297 1.67-.297.617 0 1.174.1 1.668.297.494.198.914.474 1.261.827.347.354.613.775.797 1.262a4.45 4.45 0 0 1 .277 1.593v4.458a89.946 89.946 0 0 0 .678.121c.222.048.334.187.334.417v.783h-1.012zm8.254-5.607a2.17 2.17 0 0 1-.504.711 2.86 2.86 0 0 1-.714.481 7.967 7.967 0 0 1-.818.334c-.278.095-.55.186-.818.27-.267.085-.505.18-.714.287a1.587 1.587 0 0 0-.504.388.85.85 0 0 0-.19.567c0 .178.031.341.093.491.063.15.157.277.284.384.127.106.282.19.467.25.185.06.402.09.651.09.698 0 1.215-.075 1.552-.225.058-.6.097-.96.118-1.08.036-.167.14-.25.311-.25H305.62v2.47a7.298 7.298 0 0 1-2.77.546c-.503 0-.95-.078-1.342-.233a3.036 3.036 0 0 1-.99-.62 2.637 2.637 0 0 1-.824-1.915c0-.442.063-.812.19-1.113.127-.3.294-.55.503-.75.21-.2.448-.364.714-.488.267-.125.54-.232.814-.32.274-.089.545-.17.815-.248.267-.075.505-.168.714-.277.21-.109.377-.244.504-.404.128-.16.191-.367.191-.62 0-.455-.14-.803-.42-1.045-.28-.243-.677-.364-1.189-.364-.83 0-1.438.06-1.823.177-.059.613-.099.981-.12 1.102-.036.166-.14.25-.31.25H299.505V376.942c.99-.339 1.914-.509 2.771-.509.077-.003.143-.005.2-.005.533 0 1.007.081 1.421.244a3.08 3.08 0 0 1 1.051.667c.287.282.505.614.654.994.15.381.223.79.223 1.225 0 .401-.063.741-.19 1.021M259.302 361.76v.936h-.71c-.17 0-.275-.083-.31-.25a11.653 11.653 0 0 1-.057-.597h-2.13c-.188 0-.383-.017-.588-.05a5.207 5.207 0 0 1-.627-.143l2.176 2.223c.26.269.507.53.741.787.235.258.441.525.617.802.175.275.315.565.42.867.102.303.154.632.154.988 0 .414-.073.79-.22 1.129a2.515 2.515 0 0 1-.614.867c-.262.24-.578.426-.947.557-.37.13-.777.197-1.22.197-.429 0-.828-.06-1.2-.177a2.985 2.985 0 0 1-.987-.527 2.91 2.91 0 0 1-.718-.874 3.588 3.588 0 0 1-.387-1.218l.868-.154c.08-.013.153-.02.22-.02a.61.61 0 0 1 .374.11c.097.074.171.195.22.364.102.338.281.608.537.808.256.2.582.3.978.3.214 0 .406-.03.577-.09a1.18 1.18 0 0 0 .731-.714c.067-.176.1-.38.1-.611 0-.254-.034-.495-.103-.724a3.066 3.066 0 0 0-.3-.678 4.733 4.733 0 0 0-.488-.674 14.235 14.235 0 0 0-.657-.714l-2.93-2.938a.96.96 0 0 1-.294-.68v-.547H259.301l.001 1.446zm8.244 3.38c0 .846-.09 1.578-.27 2.197-.18.618-.43 1.13-.748 1.535a3.018 3.018 0 0 1-1.128.904 3.343 3.343 0 0 1-1.405.297c-.503 0-.969-.1-1.399-.297a3.012 3.012 0 0 1-1.118-.904c-.315-.405-.562-.917-.74-1.535-.178-.62-.267-1.351-.267-2.197 0-.841.09-1.572.267-2.193.178-.62.425-1.133.74-1.538a3.012 3.012 0 0 1 1.118-.904c.43-.198.896-.297 1.4-.297.502 0 .97.099 1.404.297.434.198.81.499 1.128.904.318.405.567.918.747 1.538.18.62.271 1.352.271 2.193m-1.702 0c0-.698-.05-1.277-.153-1.735-.103-.46-.24-.824-.41-1.095-.172-.272-.369-.462-.592-.571a1.53 1.53 0 0 0-1.379 0c-.22.109-.415.299-.584.57-.169.272-.303.637-.404 1.096-.1.458-.15 1.037-.15 1.735 0 .699.05 1.278.15 1.736.1.459.235.823.404 1.095.17.27.364.462.584.57a1.53 1.53 0 0 0 1.38 0c.222-.108.42-.3.59-.57.171-.272.308-.636.411-1.095.102-.458.153-1.037.153-1.736m8.601-3.718c-.084.015-.572.057-1.466.127v8.43h-1.354l-2.944-2.503.521-.714a.525.525 0 0 1 .407-.187c.058 0 .117.009.177.027.06.017.12.05.177.1l1.388 1.16a12.74 12.74 0 0 1-.02-.686v-5.61c-1.034-.08-1.596-.128-1.686-.144-.18-.038-.27-.151-.269-.337v-.77h5.338v.77c0 .186-.09.299-.269.337m1.425 8.544v-1.114l.001-.015v-1.45h.71c.17 0 .274.083.31.249.022.129.051.407.088.836h3.888a3.871 3.871 0 0 1-.52-.781l-3.738-7.376h1.194c.236 0 .423.054.561.163.138.109.245.242.321.398l3.651 7.529c.044.089.09.199.136.33.047.13.07.303.07.517v.714h-6.672zM252.928 394.204v.935h-.71c-.171 0-.275-.083-.31-.25a11.653 11.653 0 0 1-.057-.597h-2.131c-.187 0-.382-.017-.587-.05a5.207 5.207 0 0 1-.627-.143l2.176 2.223c.26.269.507.53.74.787.236.258.442.525.618.802.175.275.315.565.419.867.103.303.155.632.155.988 0 .414-.073.79-.22 1.129a2.515 2.515 0 0 1-.614.867c-.262.24-.578.426-.947.557-.37.13-.777.197-1.221.197-.428 0-.827-.06-1.2-.177a2.985 2.985 0 0 1-.986-.527 2.91 2.91 0 0 1-.718-.874 3.588 3.588 0 0 1-.387-1.218l.868-.154c.08-.013.153-.02.22-.02a.61.61 0 0 1 .374.11c.097.074.17.195.22.364.102.338.28.608.537.808.256.2.582.3.978.3.214 0 .406-.03.577-.09a1.18 1.18 0 0 0 .731-.714c.067-.176.1-.38.1-.611 0-.254-.034-.495-.103-.724a3.066 3.066 0 0 0-.301-.678 4.733 4.733 0 0 0-.487-.674 14.235 14.235 0 0 0-.657-.714l-2.93-2.938a.96.96 0 0 1-.294-.68v-.547H252.927v1.446zm7.202 7.505v.7h-4.765l-.801-4.685 1.028-.294c.472.169.94.254 1.408.254.592 0 1.04-.148 1.345-.444.305-.296.458-.707.458-1.232 0-.285-.04-.548-.117-.791a1.768 1.768 0 0 0-.347-.628 1.57 1.57 0 0 0-.578-.41 2.037 2.037 0 0 0-.801-.147c-.284 0-.527.036-.727.107-.2.07-.376.149-.527.233a9.84 9.84 0 0 0-.398.234.628.628 0 0 1-.337.106.499.499 0 0 1-.427-.227l-.507-.701a4.26 4.26 0 0 1 1.969-1.042c.27-.06.558-.091.86-.091.517 0 .994.082 1.433.247.438.164.817.397 1.138.697.32.3.57.662.75 1.085.18.422.27.89.27 1.402 0 .414-.066.8-.2 1.158a2.622 2.622 0 0 1-.594.938 2.774 2.774 0 0 1-.97.627c-.385.15-.831.227-1.34.227-.36 0-.757-.045-1.194-.134l.348 2.017h2.656c.347 0 .595.073.744.22a.77.77 0 0 1 .223.574m5.374-5.607h3.457v1.374h-3.457v-1.374zm12.042 6.414c-.427 0-.827-.06-1.198-.177a2.962 2.962 0 0 1-.988-.527 2.912 2.912 0 0 1-.718-.874 3.594 3.594 0 0 1-.387-1.22l.868-.152c.08-.013.155-.02.227-.02a.58.58 0 0 1 .367.11c.093.073.167.195.22.364.102.325.283.59.54.798.259.207.584.31.975.31.432 0 .772-.117 1.022-.35.249-.234.373-.58.373-1.04 0-.212-.031-.408-.093-.586a1.005 1.005 0 0 0-.33-.457 1.73 1.73 0 0 0-.638-.298 4.162 4.162 0 0 0-1.008-.113v-1.174c.49 0 .88-.038 1.172-.114.29-.075.515-.18.67-.313a.93.93 0 0 0 .307-.484c.049-.19.074-.4.074-.631a1.518 1.518 0 0 0-.417-1.035 1.606 1.606 0 0 0-.524-.358 1.83 1.83 0 0 0-.735-.136c-.25 0-.463.036-.644.11-.18.073-.337.169-.47.287a1.85 1.85 0 0 0-.344.404 5.75 5.75 0 0 0-.264.46.502.502 0 0 1-.21.214.646.646 0 0 1-.31.074.969.969 0 0 1-.381-.08l-.727-.301c.133-.414.293-.78.48-1.095.187-.316.414-.583.68-.801.268-.217.582-.382.942-.493a4.325 4.325 0 0 1 1.268-.167c.446 0 .867.065 1.265.194.399.128.749.319 1.05.57.304.25.544.56.722.93.178.37.267.795.267 1.276 0 .565-.143 1.035-.427 1.409-.285.373-.716.65-1.295.834.24.08.455.18.644.3s.349.267.48.44c.132.174.232.378.3.61.07.235.104.505.104.813a2.32 2.32 0 0 1-.787 1.772c-.254.224-.56.4-.917.527-.36.126-.76.19-1.205.19m11.346-4.933c0 .846-.09 1.578-.27 2.197-.18.618-.43 1.13-.747 1.535a3.018 3.018 0 0 1-1.128.904 3.343 3.343 0 0 1-1.405.297 3.3 3.3 0 0 1-1.4-.297 3.004 3.004 0 0 1-1.117-.904c-.316-.405-.563-.917-.741-1.535-.177-.62-.266-1.351-.266-2.197 0-.841.089-1.572.266-2.193.178-.62.425-1.133.74-1.538a3.004 3.004 0 0 1 1.119-.904 3.3 3.3 0 0 1 1.399-.297c.503 0 .97.099 1.405.297.434.198.81.499 1.128.904.318.405.567.918.747 1.538.18.62.27 1.352.27 2.193m-1.701 0c0-.698-.051-1.277-.154-1.735-.102-.46-.24-.824-.41-1.095-.172-.272-.368-.462-.591-.571a1.53 1.53 0 0 0-1.379 0c-.22.109-.415.299-.584.57-.17.272-.304.637-.404 1.096-.1.458-.15 1.037-.15 1.735 0 .699.05 1.278.15 1.736.1.459.235.823.404 1.095.169.27.364.462.584.57a1.53 1.53 0 0 0 1.379 0c.223-.108.419-.3.59-.57.172-.272.309-.636.41-1.095.104-.458.155-1.037.155-1.736" fill="#373535"/><path d="M267.56 332.43c27.023 0 48.93 21.908 48.93 48.932s-21.907 48.932-48.93 48.932c-27.025 0-48.932-21.908-48.932-48.932s21.907-48.931 48.931-48.931z" fill="none" stroke="#373535" stroke-width="1.905" stroke-linecap="round" stroke-linejoin="round"/><path d="M132.356 343.874l17.426 18.663s1.331-30.17 7.657-43.819c0 0 8.48 43.153 19.553 65.458 0 0 22.22-32.958 17.978-60.922 0 0 12.738 5.66 16.732 18.31 0 0 21.974-24.968 7.071-59.924 0 0-7.69-24.635-38.364-24.635-71.908 0-70.173 64.897-48.053 86.87" fill="#edcb5b"/><path d="M167.4 291.37s4.035 20.53 9.303 31.143c0 0 8.538-18.766 6.521-32.071 0 0 12.581 5.779 14.481 11.797 0 0 5.967-11.88-1.123-28.51" fill="#d3373b"/><path d="M188.79 273.16c-.47 0-.944.094-1.401.289a3.58 3.58 0 0 0-1.891 4.699c3.418 8.019 3.532 14.749 2.896 19.279-4.316-3.81-9.93-6.52-11.465-7.225a3.584 3.584 0 0 0-5.037 3.792c1.03 6.787-1.04 15.378-3.068 21.636-3.337-10.02-5.67-21.783-5.7-21.936-.381-1.943-2.282-3.198-4.203-2.825a3.581 3.581 0 0 0-2.824 4.206c.168.857 4.188 21.128 9.609 32.045.616 1.238 1.952 2.028 3.269 1.988a3.578 3.578 0 0 0 3.199-2.098c.31-.683 6.538-14.528 7.105-27.376 3.397 2.135 6.596 4.716 7.22 6.697a3.583 3.583 0 0 0 3.133 2.492 3.553 3.553 0 0 0 3.486-1.962c.272-.546 6.624-13.57-1.031-31.522a3.585 3.585 0 0 0-3.297-2.178" fill="#373535"/><path d="M171.237 259.204c-41.25 0-55.967 20.76-61.07 33.135-9.048 21.953-1.771 47.674 10.49 59.857l17.335 18.566a3.58 3.58 0 0 0 6.195-2.287c.012-.216.753-16.188 3.52-29.722 3.433 14.705 9.56 38.002 16.906 52.795a3.583 3.583 0 0 0 2.97 1.982 3.617 3.617 0 0 0 3.209-1.572c.86-1.276 19.41-29.136 19.124-56.112 3.379 2.65 7.38 6.812 9.199 12.576a3.583 3.583 0 0 0 6.104 1.288c.958-1.088 23.242-27.032 7.725-63.586-.937-2.64-10.414-26.92-41.707-26.92M137.6 359.847l-11.798-12.637c-10.458-10.391-16.814-33.216-9.012-52.141 5.398-13.093 19.227-28.702 54.447-28.702 27.719 0 34.877 21.9 34.947 22.12.035.115.077.228.124.338 10.276 24.106 2.108 42.937-3.07 51.366-5.721-9.77-15.497-14.212-15.985-14.43a3.582 3.582 0 0 0-4.996 3.81c2.98 19.642-8.098 42.359-13.974 52.715-9.392-22.625-16.425-58.09-16.502-58.48a3.579 3.579 0 0 0-3.084-2.864 3.574 3.574 0 0 0-3.68 2.05c-4.481 9.674-6.545 26.685-7.417 36.855" fill="#373535"/></g><path d="M147.86 225.776l-14.483 34.12 144.486 61.332 14.484-34.12-144.486-61.331z" fill="#93563a"/><path d="M147.86 225.776l-6.818 16.065 144.485 61.332 6.82-16.065-144.486-61.331z" fill="#bf977e"/><path d="M142.674 217.133l-14.483 34.12 144.486 61.331 14.484-34.12-144.487-61.331z" fill="none" stroke="#373535" stroke-width="5.125" stroke-linecap="round" stroke-linejoin="round"/><path d="M139.252 228.613l37.913 16.093M141.494 223.331l15.532 6.593M143.542 237.635l-6.88-2.92M250.61 285.174l29 12.31M262.345 300.306l13.613 5.78M156.907 253.459l20.828 8.841M203.889 263.251l14.157 6.01M203.827 251.881l47.294 20.075M214.779 280.116l27.859 11.825M259.22 279.537l23.812 10.107" fill="none" stroke="#373535" stroke-width="1.925" stroke-linecap="round" stroke-linejoin="round"/><path d="M270.726 225.776l14.483 34.12-144.486 61.332-14.484-34.12 144.486-61.331z" fill="#93563a"/><path d="M270.726 225.776l6.818 16.065-144.485 61.332-6.82-16.065 144.487-61.331z" fill="#bf977e"/><path d="M275.912 217.133l14.484 34.12-144.487 61.331-14.484-34.12 144.487-61.331z" fill="none" stroke="#373535" stroke-width="5.125" stroke-linecap="round" stroke-linejoin="round"/><path d="M279.334 228.613l-37.913 16.093M277.092 223.331l-15.531 6.593M275.044 237.635l6.88-2.92M167.977 285.174l-29 12.31M156.242 300.306l-13.614 5.78M261.679 253.459l-20.828 8.841M214.697 263.251l-14.157 6.01M214.76 251.881l-47.294 20.075M203.807 280.116l-27.859 11.825M159.366 279.537l-23.812 10.107" fill="none" stroke="#373535" stroke-width="1.925" stroke-linecap="round" stroke-linejoin="round"/><path d="M87.127 280.087H11.464" fill="none" stroke="#373535" stroke-width="2.44" stroke-linecap="round" stroke-linejoin="round"/><path d="M92.815 247.375l-81.85-10.95" fill="none" stroke="#93563a" stroke-width="3.65875" stroke-linecap="round" stroke-linejoin="round"/><path d="M97.707 215.278l-86.445-23.13" fill="none" stroke="#d3373b" stroke-width="4.87875" stroke-linecap="round" stroke-linejoin="round"/><g clip-path="url(#b)" transform="matrix(1.25 0 0 -1.25 0 546.25)"><path d="M81.308 289.705L10.02 319.454" fill="none" stroke="#edcb5b" stroke-width="5.855" stroke-linecap="round" stroke-linejoin="round"/></g><path d="M320.01 280.087h75.663" fill="none" stroke="#373535" stroke-width="2.44" stroke-linecap="round" stroke-linejoin="round"/><path d="M314.323 247.375l81.849-10.95" fill="none" stroke="#93563a" stroke-width="3.65875" stroke-linecap="round" stroke-linejoin="round"/><path d="M309.43 215.278l86.445-23.13" fill="none" stroke="#d3373b" stroke-width="4.87875" stroke-linecap="round" stroke-linejoin="round"/><g clip-path="url(#c)" transform="matrix(1.25 0 0 -1.25 0 546.25)"><path d="M244.403 289.705l71.288 29.749" fill="none" stroke="#edcb5b" stroke-width="5.855" stroke-linecap="round" stroke-linejoin="round"/></g><path d="M7.805 458.394l21.652 29.919-21.652 32.815h94.386v-62.734H7.805z" fill="#409987"/><path d="M75.847 477.631l26.344-19.289v53.578H88.175L75.847 477.63z" fill="#007266"/><path d="M305.445 458.394v62.734h94.386l-21.656-32.815 21.656-29.92h-94.386z" fill="#409987"/><path d="M331.789 477.631l-26.344-19.289v53.578h14.019l12.325-34.289z" fill="#007266"/><path d="M75.664 477.631l15.955 58.933h224.399l15.953-58.933H75.664z" fill="#a7cdbe"/><g clip-path="url(#d)" transform="matrix(1.25 0 0 -1.25 0 546.25)"><path d="M111.8 37.484c.378.081.568.317.568.708v1.331h-4.021a4.067 4.067 0 0 1-.351-.01.917.917 0 0 1-.267-.058.56.56 0 0 1-.215-.147 1.201 1.201 0 0 1-.187-.272l-4.857-9.083a10.49 10.49 0 0 1-.363-.76 29.004 29.004 0 0 1-.33-.806c-.106.267-.213.53-.322.79a9.313 9.313 0 0 1-.357.753l-4.902 9.106a1.147 1.147 0 0 1-.193.272.62.62 0 0 1-.221.147.97.97 0 0 1-.267.057 4.583 4.583 0 0 1-.351.011h-4.022v-1.332c0-.39.19-.627.569-.708.033-.005.08-.013.142-.025l.338-.062.67-.119V25.365l-.67-.119-.338-.06-.142-.025c-.38-.08-.568-.317-.568-.709V23.12h6.452v1.332c0 .392-.19.628-.567.71-.044.008-.537.076-1.48.206v8.35c0 .204-.004.425-.016.663a9.947 9.947 0 0 1-.062.733l5.026-9.34c.114-.212.26-.377.443-.494.18-.117.393-.176.635-.176h.42c.242 0 .454.059.635.176.182.117.329.282.443.494l4.958 9.306a14.932 14.932 0 0 1-.068-1.362v-8.35c-.941-.13-1.434-.198-1.48-.206-.378-.081-.567-.317-.567-.71V23.12h6.453v1.332c0 .392-.19.628-.568.71l-.143.026-.337.06-.671.12V37.28c.283.048.507.088.67.117l.339.062.142.026m4.329 2.039h-1.72v-1.332c0-.391.19-.627.569-.708l.142-.026.338-.061.67-.117V25.366l-.67-.12c-.164-.028-.276-.048-.338-.06l-.142-.024c-.38-.081-.568-.317-.568-.71v-1.331h12.074v1.59l-.01.848.01 1.885h-1.306c-.292 0-.468-.141-.53-.423-.036-.177-.091-.664-.17-1.462h-5.276v4.64h5.55v2.348h-5.55v4.55h5.277a33.92 33.92 0 0 1 .17-1.457c.06-.283.237-.424.529-.424h1.306v4.308h-10.355zm26.552-14.36c-.033.007-.091.015-.173.027a40.293 40.293 0 0 0-1.099.18l-2.581 3.809c-.28.408-.613.72-1 .94a5.912 5.912 0 0 1 1.538.727c.45.302.829.653 1.135 1.054.306.4.54.847.703 1.339.162.491.244 1.013.244 1.565 0 .697-.12 1.334-.357 1.913a3.75 3.75 0 0 1-1.123 1.49c-.511.417-1.165.74-1.963.97-.798.23-1.757.346-2.877.346H128.566V38.19c0-.39.19-.627.569-.708l.142-.025.338-.062.67-.119V25.365l-.67-.119-.338-.06-.142-.025c-.38-.08-.568-.317-.568-.709V23.12H135.053v1.332c0 .392-.19.628-.568.71l-.142.026c-.062.01-.175.03-.338.06l-.67.12v4.163h1.146c.302 0 .53-.042.687-.125.155-.083.297-.223.425-.42l3.45-5.254a1.38 1.38 0 0 1 .47-.453c.187-.106.412-.159.676-.159h3.061v1.332c-.001.392-.19.628-.57.71v.003zm-6.094 6.77c-.428-.143-.93-.215-1.504-.215h-1.747v5.447h1.792c1.127 0 1.965-.223 2.514-.67.549-.446.823-1.085.823-1.917 0-.416-.068-.798-.204-1.146a2.401 2.401 0 0 0-.62-.902c-.275-.254-.627-.452-1.054-.596m23.912-6.77a17.142 17.142 0 0 0-.592.083c-.184.028-.41.065-.675.11l-4.036 5.443a3.563 3.563 0 0 1-.584.635 2.261 2.261 0 0 1-.675.386c.18.09.35.207.51.35a5.1 5.1 0 0 1 .5.534l3.712 4.584c.266.046.49.083.675.11.184.028.32.048.408.059.088.01.149.018.183.024.379.082.568.318.568.709v1.331H154.444v-1.332c0-.39.189-.627.568-.708l.143-.025c.06-.012.113-.02.155-.029l-3.381-4.28a1.206 1.206 0 0 0-.488-.38c-.19-.08-.427-.12-.715-.12h-.714v4.64c.283.05.505.088.668.118l.338.062.142.024c.379.081.568.318.568.71v1.32h-6.485v-1.33c0-.392.189-.628.567-.709l.143-.026.338-.06c.163-.03.387-.069.67-.119V25.365c-.283-.05-.507-.089-.67-.119l-.338-.06-.143-.026c-.378-.08-.567-.317-.567-.708V23.12H151.728v1.332c0 .391-.19.627-.568.708l-.142.026-.338.06-.668.12v4.97h.964c.347 0 .616-.044.805-.13.189-.088.359-.23.51-.427l3.469-4.53c-.12-.023-.222-.04-.308-.057l-.18-.03c-.377-.082-.566-.318-.566-.71V23.12h6.36v1.332c0 .392-.19.628-.567.71v.002zm12.944 4.83a3.706 3.706 0 0 1-.857 1.208c-.356.33-.76.602-1.213.817-.452.214-.915.403-1.39.567a64.14 64.14 0 0 1-1.39.46 7.945 7.945 0 0 0-1.214.488 2.706 2.706 0 0 0-.856.658c-.216.257-.324.579-.324.965 0 .302.053.58.159.834.106.253.267.47.482.652.215.18.48.323.794.426.314.1.683.152 1.107.153 1.185 0 2.064-.128 2.637-.383.098-1.02.165-1.631.2-1.837.062-.282.238-.423.53-.423h1.306v4.196c-1.527.62-3.096.93-4.708.93-.854 0-1.614-.133-2.28-.398a5.173 5.173 0 0 1-1.684-1.053 4.472 4.472 0 0 1-1.043-1.51 4.472 4.472 0 0 1-.357-1.746c0-.75.108-1.38.323-1.89a3.77 3.77 0 0 1 .856-1.277c.356-.34.76-.616 1.213-.828.454-.212.915-.393 1.384-.545.464-.149.926-.289 1.384-.419a6.427 6.427 0 0 0 1.214-.47c.356-.187.64-.415.857-.688.217-.272.325-.624.325-1.055 0-.77-.24-1.363-.715-1.776-.477-.412-1.15-.618-2.02-.618-1.412 0-2.445.1-3.098.301-.101 1.042-.17 1.667-.205 1.873-.061.282-.237.423-.53.423H163.026V23.813c1.682-.578 3.252-.866 4.71-.866.129-.005.242-.008.338-.008.907 0 1.713.138 2.416.414a5.221 5.221 0 0 1 1.786 1.134 4.778 4.778 0 0 1 1.11 1.69c.255.647.38 1.341.38 2.082 0 .68-.106 1.26-.322 1.735m15.025 6.411a4.208 4.208 0 0 1-1.157 1.656c-.521.461-1.183.82-1.985 1.077-.803.257-1.754.386-2.852.386h-6.797V38.19c0-.39.19-.627.569-.708.033-.005.08-.013.142-.025l.338-.062.67-.119V25.365l-.67-.119-.338-.06-.142-.025c-.38-.08-.568-.317-.568-.709V23.12h6.488v1.332c0 .392-.19.628-.568.71l-.143.026-.338.06-.67.12v3.528h2.028c1.068 0 1.999.131 2.794.396.795.264 1.456.634 1.986 1.111a4.519 4.519 0 0 1 1.19 1.707c.265.662.397 1.39.397 2.184a5.8 5.8 0 0 1-.374 2.111m-2.881-3.365a2.471 2.471 0 0 0-.613-.953 2.73 2.73 0 0 0-1.034-.6c-.416-.14-.905-.21-1.466-.21h-2.027v5.888h2.028c.56 0 1.048-.066 1.465-.198a2.747 2.747 0 0 0 1.034-.573c.272-.25.477-.552.613-.908.137-.356.205-.753.205-1.192 0-.46-.068-.879-.205-1.254m15.856-5.996c-.291 0-.467-.14-.527-.423a19.52 19.52 0 0 1-.094-.984h-5.276v11.64l.668.12c.162.028.275.05.337.06l.142.026c.379.081.568.317.568.708v1.332h-6.484v-1.332c0-.39.189-.627.567-.708l.143-.026c.062-.01.174-.032.338-.06l.67-.118V25.365c-.283-.05-.507-.089-.67-.119l-.338-.06-.143-.025c-.378-.08-.567-.317-.567-.709V23.12h11.871v3.923l-1.205.001zm20.379-2.183c-.116.047-.53.221-1.244.522l-5.555 14.14h-3.12l-5.554-14.14a236.62 236.62 0 0 0-1.244-.522c-.3-.125-.45-.319-.45-.582V23.12h5.542v1.16c0 .262-.15.456-.45.581-.053.021-.204.085-.453.19l.052.143.85 2.328h6.535l.815-2.233.087-.239a41.27 41.27 0 0 0-.453-.189c-.3-.125-.45-.319-.45-.582V23.12h5.543v1.16c-.001.262-.151.456-.451.581m-8.977 9.887c.099.251.199.543.3.874.102.33.206.688.313 1.077a23.313 23.313 0 0 1 .624-1.928l1.864-5.095h-4.965l1.864 5.072zm21.798-4.754a3.706 3.706 0 0 1-.857 1.208c-.356.33-.76.602-1.214.817-.451.215-.915.404-1.39.568a64.14 64.14 0 0 1-1.39.46 7.945 7.945 0 0 0-1.213.487 2.71 2.71 0 0 0-.857.658c-.215.257-.323.58-.323.965 0 .302.053.58.159.834.106.253.267.471.482.652.215.181.48.323.794.426.314.101.683.152 1.106.153 1.186 0 2.065-.128 2.638-.383.098-1.019.165-1.63.2-1.837.06-.282.238-.423.53-.423h1.306v4.196c-1.527.62-3.096.93-4.708.93-.854 0-1.614-.132-2.28-.397-.665-.265-1.227-.616-1.684-1.054a4.472 4.472 0 0 1-1.043-1.509 4.472 4.472 0 0 1-.357-1.747c0-.749.107-1.379.323-1.889a3.77 3.77 0 0 1 .856-1.277c.356-.34.76-.616 1.213-.828.454-.212.915-.393 1.384-.545.464-.149.925-.289 1.384-.419a6.454 6.454 0 0 0 1.214-.47c.356-.187.64-.415.857-.688.217-.272.324-.624.324-1.055 0-.77-.238-1.363-.714-1.776-.477-.412-1.15-.618-2.02-.618-1.412 0-2.445.1-3.098.301-.101 1.042-.17 1.667-.205 1.873-.061.282-.237.423-.53.423H224.226V23.813c1.682-.578 3.252-.866 4.71-.866.129-.005.242-.008.337-.008.908 0 1.714.138 2.417.414a5.221 5.221 0 0 1 1.786 1.134 4.778 4.778 0 0 1 1.11 1.69c.255.647.38 1.341.38 2.082 0 .68-.107 1.26-.322 1.735M7.117 164.006h7.479v-22.394s1.701-3.4 4.536 1.134c2.834 4.536 6.803 21.26 6.803 21.26h5.953l-7.937-30.33 14.173-36.568h-6.803l-13.323 28.063s-2.551 1.985-2.835-1.417c-.283-3.402-1.134-26.646-1.134-26.646H7.117v66.898zM197.423 164.006h7.48v-22.394s1.7-3.4 4.535 1.134c2.834 4.536 6.803 21.26 6.803 21.26h5.953l-7.937-30.33 14.173-36.568h-6.803l-13.323 28.063s-2.55 1.985-2.835-1.417c-.283-3.402-1.134-26.646-1.134-26.646h-6.912v66.898zM62.218 146.148v8.787h7.087l.85-8.787s8.787-5.953 13.606 8.787c4.82 14.74-17.29 18.993-22.393 11.056l-5.386 5.102s7.37 9.052 20.41 5.943c13.04-3.108 18.991-17.282 15.023-25.22-3.969-7.936-8.504-13.605-9.07-14.172-.568-.567 17.857-54.992 21.826-58.394 3.968-3.401 9.638-4.535 13.04 0 3.401 4.536 2.267 5.953 3.117 5.953.851 0 6.803.284 6.803-.283s.851-10.205-5.385-13.04c-6.237-2.834-17.859-8.22-23.528 1.985-5.669 10.204-24.094 62.929-24.094 62.929s-3.969 2.834-4.536-1.701c-.567-4.536.284-36.851.284-36.851l-5.953.567-1.7 34.3s-1.494 4.702-5.387 2.834c-6.345-3.044 1.134-5.185 1.134-7.086 0-1.134-1.417-7.271-1.417-6.666 0 .604-9.322 2.77-9.889 8.44-.567 5.67-.316 10.13 6.487 12.682 6.803 2.552 9.071 2.835 9.071 2.835" fill="#373535"/><path d="M117.21 161.172c-.282-1.417-.85-63.213 0-63.213s7.655-.85 7.088 0c-.568.85-1.419 64.914-1.419 64.914l-5.669-1.701zM145.274 161.738s-.567-63.685 0-64.157c.567-.473 7.37-.473 7.37-.473s.284 37.417 1.134 35.433c.85-1.984 18.425-34.583 18.425-35.433 0-.85 4.536 0 4.536 0v66.898l-7.937-1.134.283-36.567s-17.576 37.134-17.576 36.567c0-.567-6.235-1.134-6.235-1.134M245.337 162.022c0-.425.85-6.52.85-6.52l17.574-1.134 1.276-19.56-12.33-.707.425-7.087 11.906-1.275s-.567-19.134-.567-19.56c0-.425-19.134-1.984-19.134-1.984s-.425-7.464 0-7.464h26.362c-.425 0 .85 66.14.85 66.14l-27.212-.85zM292.533 162.872s7.795.85 7.512 0c-.284-.85.85-58.11.85-58.11l18.425-.992s.851-7.04.426-7.04c-.426 0-25.937-.33-25.937-.33l-1.276 66.472z" fill="#373535"/></g></svg>