<?xml version="1.0" standalone="no"?>
<!DOCTYPE svg PUBLIC "-//W3C//DTD SVG 20010904//EN"
 "http://www.w3.org/TR/2001/REC-SVG-20010904/DTD/svg10.dtd">
<svg version="1.0" xmlns="http://www.w3.org/2000/svg"
 width="2362.000000pt" height="2362.000000pt" viewBox="0 0 2362.000000 2362.000000"
 preserveAspectRatio="xMidYMid meet">
<metadata>
Created by potrace 1.11, written by Peter Selinger 2001-2013
</metadata>
<g transform="translate(0.000000,2362.000000) scale(0.100000,-0.100000)"
fill="#000000" stroke="none">
<path d="M11490 19224 c-1491 -106 -2808 -841 -3671 -2052 -259 -362 -502
-840 -643 -1265 -110 -330 -188 -692 -226 -1045 -9 -84 -31 -485 -26 -488 0 0
334 -139 741 -308 407 -170 757 -317 777 -327 50 -26 68 -54 68 -112 0 -77
-48 -127 -121 -127 -19 0 -317 119 -741 296 -390 163 -711 294 -714 292 -6 -7
25 -320 46 -458 26 -170 63 -348 106 -509 19 -74 33 -137 32 -140 -2 -4 -392
98 -868 226 -541 145 -874 230 -890 227 -40 -9 -60 -33 -60 -74 0 -25 7 -43
23 -57 16 -14 279 -89 932 -263 501 -133 915 -245 922 -247 6 -2 14 -16 18
-31 4 -15 36 -101 72 -191 115 -290 255 -565 424 -829 l79 -124 -38 6 c-79 13
-2360 316 -2375 316 -41 0 -64 -73 -31 -100 9 -8 492 -77 1270 -181 690 -92
1258 -170 1263 -174 5 -3 40 -45 77 -93 319 -413 720 -786 1163 -1084 l144
-96 56 24 c30 14 61 23 69 22 11 -2 232 -503 232 -526 0 -4 -30 -19 -68 -35
-37 -15 -73 -31 -80 -36 -11 -6 14 -73 109 -297 67 -159 125 -293 129 -297 4
-4 279 108 611 249 l604 256 100 -16 c419 -66 832 -80 1255 -40 182 17 287 33
506 75 l162 32 666 -283 c367 -156 668 -281 669 -279 2 2 17 38 34 79 18 41
74 175 126 296 l94 222 -79 32 c-43 18 -80 36 -82 39 -3 4 46 126 108 271 61
146 123 294 136 329 28 72 28 72 169 180 314 242 661 589 880 881 35 47 67 89
72 93 4 5 570 84 1257 176 808 108 1256 172 1267 181 11 9 15 25 13 49 -2 28
-9 37 -28 44 -17 6 -402 -42 -1210 -151 -652 -87 -1186 -155 -1188 -151 -2 4
26 51 61 105 183 281 413 752 497 1016 6 21 15 40 20 43 5 3 413 113 907 246
494 132 906 242 916 245 11 3 25 21 33 40 18 42 4 80 -36 102 -23 13 -91 -3
-889 -217 -476 -127 -866 -229 -869 -227 -2 3 14 76 37 163 44 173 81 358 106
526 15 107 45 419 40 425 -1 1 -326 -133 -721 -298 -446 -186 -732 -300 -752
-300 -98 0 -156 109 -103 196 22 36 -43 7 931 413 l645 269 3 94 c7 189 -33
564 -89 843 -297 1488 -1277 2757 -2644 3424 -497 243 -1018 395 -1585 462
-133 16 -249 21 -485 24 -170 1 -335 1 -365 -1z m996 -1830 c294 -494 532
-1097 618 -1569 l15 -80 -95 -94 c-52 -51 -97 -91 -99 -89 -3 2 -9 78 -15 169
-33 493 -200 1050 -488 1626 -77 154 -79 159 -65 187 9 18 18 25 24 19 5 -5
52 -81 105 -169z m-260 -331 c177 -386 291 -737 350 -1080 32 -184 43 -457 25
-622 -15 -130 -7 -164 44 -209 53 -47 101 -50 183 -12 83 39 145 77 245 152
l77 58 -1 -82 c0 -46 -4 -114 -8 -153 -5 -38 -7 -72 -5 -74 6 -7 134 70 216
130 45 34 125 104 176 156 52 52 95 93 96 91 13 -15 80 -217 105 -318 120
-484 86 -936 -110 -1447 -68 -179 -84 -211 -157 -323 -81 -125 -248 -320 -229
-268 80 223 115 480 96 699 -10 121 -42 270 -74 344 l-17 40 -21 -41 c-23 -42
-61 -94 -70 -94 -3 0 -8 21 -12 47 -10 71 -53 211 -81 270 -37 76 -106 112
-178 92 -51 -14 -81 -43 -110 -105 -23 -48 -132 -172 -142 -161 -2 1 -15 58
-29 126 -35 165 -103 391 -170 563 -31 78 -58 144 -60 147 -3 2 -18 -25 -34
-60 l-29 -64 -12 30 c-6 17 -31 81 -56 144 -25 63 -54 131 -66 152 -29 51 -88
83 -143 77 -90 -11 -120 -53 -218 -308 -123 -320 -317 -1063 -304 -1161 17
-130 192 -174 269 -69 11 15 37 109 63 225 49 217 116 477 166 638 l32 102 18
-54 c11 -30 33 -109 49 -176 l31 -122 -30 -111 c-47 -172 -122 -504 -119 -525
2 -13 126 -93 388 -252 212 -129 384 -237 383 -242 -1 -4 -11 -34 -23 -66 -17
-49 -19 -64 -9 -99 36 -137 231 -151 286 -21 l14 34 47 -27 c85 -49 85 -49 65
-66 -84 -72 -277 -173 -425 -223 -191 -63 -277 -76 -541 -82 -767 -17 -1385
162 -1823 529 -106 90 -125 115 -198 268 -132 277 -196 577 -196 917 0 363 82
729 234 1040 97 198 181 314 392 541 103 111 189 200 191 198 2 -2 15 -77 28
-167 65 -428 149 -769 237 -956 54 -115 166 -144 250 -65 33 31 38 45 80 244
18 86 34 155 36 153 3 -2 21 -71 42 -152 33 -127 109 -357 116 -350 1 1 32
135 68 297 148 669 315 1278 471 1726 37 104 72 204 78 222 5 17 12 32 14 32
2 0 19 -35 39 -77z m-961 -678 l16 -190 -63 -252 c-34 -139 -63 -251 -65 -250
-14 15 -103 644 -103 731 0 40 5 48 98 146 l97 104 3 -50 c1 -27 9 -134 17
-239z m2610 -657 c225 -305 380 -694 441 -1105 23 -151 23 -479 0 -638 -43
-302 -175 -710 -298 -920 -268 -459 -715 -737 -1278 -796 -220 -23 -654 -1
-935 47 -105 18 -347 75 -342 81 3 2 56 -3 119 -11 298 -39 653 -43 878 -10
429 63 774 239 1056 537 223 236 375 528 493 947 80 287 112 668 80 958 -30
277 -111 562 -241 842 -41 88 -50 130 -27 130 5 0 29 -28 54 -62z m-1016
-1904 c1 -23 -5 -46 -11 -52 -7 -5 -58 -34 -112 -63 l-99 -52 6 69 c4 57 9 71
28 84 13 8 57 40 99 71 l75 55 7 -35 c4 -20 7 -55 7 -77z m-2600 -1748 c25 14
48 6 674 -260 357 -152 655 -280 663 -284 22 -12 -717 -326 -746 -317 -31 10
-1140 482 -1146 487 -3 3 6 29 19 59 21 49 26 53 57 53 28 1 36 5 38 23 2 13
-5 27 -19 37 l-22 15 27 66 c16 36 30 65 32 65 2 0 244 -102 536 -226 550
-234 563 -238 563 -184 0 20 -54 45 -530 247 -291 124 -533 228 -536 231 -4 4
4 30 17 59 l23 52 162 -69 c155 -66 163 -69 188 -54z m3823 27 c2 -14 -98 -60
-522 -240 -289 -123 -531 -230 -539 -238 -16 -15 -9 -43 13 -51 9 -3 251 94
538 216 288 122 528 225 535 227 8 3 23 -18 38 -52 30 -69 31 -76 5 -98 -11
-9 -20 -21 -20 -26 0 -17 30 -33 54 -29 22 4 27 -1 47 -49 12 -31 18 -58 13
-62 -9 -9 -4465 -1901 -4476 -1901 -3 0 -10 12 -16 28 l-9 27 435 185 c239
101 441 190 448 198 18 17 1 52 -24 52 -9 0 -212 -83 -451 -185 -239 -101
-436 -183 -437 -182 -1 1 -20 45 -42 97 -28 67 -37 97 -29 101 7 4 163 71 347
149 184 78 341 147 349 155 16 16 9 43 -14 51 -14 6 -191 -67 -641 -259 l-81
-35 -32 76 c-17 41 -29 77 -27 79 6 6 766 330 841 358 104 40 820 346 828 355
5 4 -19 18 -52 31 -34 13 -61 26 -61 29 0 3 116 54 258 114 141 60 291 124
332 141 l76 32 -1 -26 c0 -20 8 -30 37 -44 36 -18 38 -18 80 1 l43 20 -58 26
c-32 14 -65 26 -75 26 -9 1 -2 7 16 15 32 14 38 13 101 -14 l67 -28 164 67
c91 36 179 73 195 82 51 27 1331 568 1344 568 6 0 11 -4 11 -9 0 -25 44 -14
192 49 l163 69 17 -39 c9 -22 18 -47 20 -57z m-92 -1584 c223 -95 409 -176
414 -180 5 -5 0 -29 -13 -58 -11 -27 -25 -61 -30 -74 l-10 -25 -351 149 c-193
82 -357 149 -365 149 -22 0 -37 -34 -22 -53 7 -8 163 -79 348 -157 185 -78
341 -145 348 -149 9 -6 1 -34 -30 -104 -38 -88 -43 -95 -62 -87 -12 4 -209 88
-437 184 -228 97 -424 175 -435 174 -23 -3 -32 -40 -13 -55 7 -6 207 -93 443
-193 237 -100 431 -183 433 -185 1 -1 -3 -14 -9 -29 -9 -18 -18 -25 -28 -21
-114 42 -1348 572 -1343 577 14 13 718 307 737 308 11 0 202 -77 425 -171z"/>
<path d="M11345 11062 c-659 -282 -790 -341 -793 -358 -4 -31 20 -47 52 -35
29 12 1519 644 1560 662 37 17 34 63 -4 66 -14 1 -380 -150 -815 -335z"/>
<path d="M11895 10916 c-191 -81 -241 -107 -243 -123 -2 -11 4 -26 13 -33 13
-11 53 3 258 90 133 56 248 107 255 113 22 17 10 52 -18 54 -14 1 -133 -44
-265 -101z"/>
<path d="M5358 10459 c-25 -14 -22 -45 4 -63 20 -14 158 -16 1281 -16 796 0
1265 4 1276 10 28 14 34 40 15 61 -16 18 -63 19 -1288 19 -845 -1 -1277 -4
-1288 -11z"/>
<path d="M15643 10458 c-22 -29 -23 -38 -3 -58 20 -20 26 -20 1279 -20 794 0
1269 4 1285 10 28 10 35 47 14 68 -18 18 -2561 17 -2575 0z"/>
<path d="M7800 8945 c-166 -35 -309 -108 -424 -215 l-48 -45 113 -107 114
-107 40 41 c79 79 192 118 346 118 175 0 332 -57 442 -160 162 -151 175 -343
41 -613 -69 -140 -174 -238 -270 -253 -65 -9 -144 -1 -189 22 l-40 19 -17 170
c-9 94 -17 176 -17 183 -1 9 -38 12 -151 12 l-150 0 0 -185 c0 -181 0 -185
-21 -185 -31 0 -323 -97 -406 -135 -179 -82 -248 -223 -224 -457 12 -117 31
-158 107 -227 62 -57 299 -181 314 -165 5 5 20 66 34 136 31 148 29 155 -48
217 -30 23 -62 57 -72 76 -18 34 -18 35 2 62 56 76 185 106 243 58 72 -62 66
-16 106 -810 20 -396 38 -721 39 -723 6 -6 237 -24 242 -19 3 3 1 300 -5 659
-14 863 -8 956 65 974 30 8 96 -10 113 -29 6 -8 82 -213 170 -458 389 -1087
654 -1780 797 -2076 49 -103 76 -145 124 -197 175 -187 410 -191 822 -14 74
31 134 65 163 90 86 76 145 245 145 416 0 96 8 92 -166 92 -125 0 -144 -6
-144 -44 0 -35 -70 -162 -122 -220 -109 -123 -247 -144 -413 -62 -123 61 -154
105 -274 383 -175 405 -556 1465 -706 1966 l-45 147 78 105 c149 201 308 479
336 590 49 187 -15 437 -162 631 -122 162 -289 272 -492 324 -108 28 -296 36
-390 15z"/>
<path d="M5290 6995 l0 -1395 150 0 150 0 0 52 c0 72 29 784 39 953 4 77 13
151 20 163 15 27 63 30 89 4 9 -9 140 -277 291 -595 l274 -577 145 0 c111 0
143 3 139 13 -3 6 -136 349 -296 762 l-291 750 161 615 c88 338 162 623 165
633 5 16 -5 17 -120 17 l-125 0 -11 -42 c-102 -397 -197 -696 -257 -810 -60
-115 -133 -158 -183 -108 -19 19 -20 33 -20 490 l0 470 -160 0 -160 0 0 -1395z"/>
<path d="M12185 8365 c-82 -13 -151 -24 -153 -24 -1 -1 1 -340 4 -753 l6 -753
-292 610 c-161 336 -323 675 -361 754 -58 120 -72 142 -86 136 -10 -4 -70 -15
-133 -24 l-115 -17 -8 -530 c-11 -796 -5 -2130 10 -2145 8 -8 64 -14 156 -17
l144 -5 6 174 c4 96 7 262 7 370 0 252 19 837 29 892 l7 42 38 -75 c21 -41
161 -307 311 -590 150 -283 307 -583 348 -667 54 -107 83 -153 98 -158 19 -6
74 -2 142 11 l27 6 0 1394 c0 1321 -1 1394 -17 1393 -10 -1 -85 -12 -168 -24z"/>
<path d="M13220 6995 l0 -1395 148 0 149 0 7 188 c18 517 39 930 50 962 8 27
17 36 38 38 15 2 35 -1 46 -7 11 -6 129 -243 297 -595 l278 -586 143 0 143 0
-13 38 c-8 20 -141 363 -295 762 l-282 725 161 615 c88 338 163 623 166 633 5
16 -5 17 -120 17 l-125 0 -11 -42 c-147 -567 -243 -835 -326 -907 -41 -36 -84
-41 -114 -11 -19 19 -20 33 -20 490 l0 470 -160 0 -160 0 0 -1395z"/>
<path d="M17263 8351 c-34 -3 -65 -9 -69 -13 -7 -7 27 -2016 43 -2551 l6 -219
536 7 c295 4 540 11 546 16 8 8 -9 277 -19 286 -2 2 -174 13 -382 24 -209 12
-380 22 -381 23 -3 3 -21 917 -34 1716 -8 511 -14 707 -22 712 -14 9 -131 8
-224 -1z"/>
<path d="M9990 8305 l-105 -32 -6 -129 c-4 -71 -9 -552 -13 -1069 -7 -946 0
-1415 20 -1435 5 -5 75 -13 153 -17 l143 -6 -6 84 c-10 126 -24 759 -36 1559
-13 905 -19 1080 -34 1079 -6 -1 -58 -16 -116 -34z"/>
<path d="M15660 8323 c-239 -8 -436 -16 -438 -18 -5 -4 30 -260 37 -267 3 -4
166 -17 361 -29 195 -12 358 -25 362 -28 6 -6 62 -801 56 -806 -2 -2 -115 -9
-251 -16 -181 -9 -250 -16 -254 -25 -2 -7 -1 -75 4 -151 l8 -138 243 -26 c133
-14 245 -29 248 -32 9 -9 -18 -802 -28 -808 -14 -9 -150 -24 -493 -55 -159
-14 -291 -27 -292 -28 -6 -6 -15 -268 -9 -290 l6 -26 549 0 548 0 7 598 c7
687 23 1603 31 1935 l7 227 -134 -1 c-73 -1 -329 -8 -568 -16z"/>
</g>
</svg>
